<svg viewBox="0 0 1189 841" version="1.1" id="svg1" stroke="currentColor" fill="currentColor">
  <title id="title1">ALBERT PARK F1 CIRCUITS CRAFTY LITTLE THINGS SHEFFIELD</title>
  <g id="layer1">
    <path d="m 480.38119,664.00526 c -14.07583,0.0662 -19.18758,-14.24517 -22.92879,-24.72531 -2.07433,-5.79967 -4.42383,-12.3825 -7.23635,-14.81667 -11.31358,-9.83985 -19.37808,-15.84589 -35.84575,-16.33537 -13.91444,-0.41275 -33.27929,0.58737 -53.75275,1.64835 -25.54552,1.32292 -51.94829,2.68817 -71.17292,1.45785 -22.0345,-1.41287 -61.66908,-7.14375 -98.61285,-14.2531 -67.46875,-12.98575 -72.04075,-19.41248 -74.49873,-22.86529 -7.28662,-10.22615 2.11667,-25.13542 20.79361,-52.85846 4.43441,-6.57489 10.14941,-15.0495 12.85875,-20.02896 -6.71513,-5.90285 -15.52311,-13.27943 -24.74913,-21.00791 -42.597908,-35.69759 -57.237308,-49.08286 -59.816998,-57.94375 -2.55058,-8.71009 0.25136,-30.85307 5.15938,-66.34163 1.23031,-8.89264 2.41564,-17.44398 3.28348,-24.64329 1.64571,-13.6181 11.1125,-34.0016 20.26443,-53.74217 5.37898,-11.58875 10.464278,-22.54514 13.128628,-30.39797 1.93146,-5.69384 2.68287,-12.7635 3.41048,-19.60034 1.20914,-11.34533 2.46592,-23.09019 9.45621,-30.9827 5.65414,-6.3844 13.0757,-6.12775 19.59768,-5.91079 11.303,0.38893 28.37127,0.95514 58.75867,-27.178 12.62856,-11.69459 20.26179,-16.75871 37.9386,-21.88634 18.78277,-5.44777 39.38323,-9.44298 62.72477,-1.88648 18.03136,5.842 30.48,12.72117 52.71294,25.96621 22.44196,13.37204 73.28958,46.49787 88.92117,59.04441 9.60702,7.69673 4.67518,20.49198 0.33337,31.77117 -1.6801,4.37092 -4.81277,12.50685 -4.30477,14.97542 2.64583,10.71562 8.46667,23.28333 17.29052,37.30625 12.31106,19.57916 33.39571,47.91868 50.60685,63.91539 14.81667,13.78479 34.58634,30.67315 56.03346,39.02605 17.12648,6.67279 36.63157,11.79777 53.51727,14.0626 17.11061,2.29394 85.3149,-3.35756 115.54354,-7.9375 4.94507,-2.0664 16.87778,-18.68752 23.31509,-27.65954 12.38779,-17.25877 18.19275,-24.93434 25.89477,-25.87096 42.5106,-5.15673 91.83422,-10.08063 128.70391,-12.85081 19.21669,-1.44198 47.88958,3.82322 65.3124,11.99091 31.38757,14.7029 90.78387,45.30725 144.42017,74.41142 14.2108,7.70731 4.2677,29.52485 -5.334,50.59098 l -0.9446,2.07698 c -2.7252,5.99016 -6.4214,14.65262 -10.3319,23.8125 -22.9712,53.83741 -29.0328,65.39441 -36.0892,68.79166 -1.2568,0.61384 -2.3336,1.21973 -3.347,1.79123 -9.3927,5.29167 -16.3539,7.20196 -39.5208,2.04788 -5.4213,-1.20386 -13.5864,-3.30994 -23.04257,-5.74675 -19.49979,-5.02709 -50.24437,-12.96459 -65.5664,-14.68173 0.23548,3.65919 0.81228,8.51164 1.28323,12.43542 1.6219,13.57577 3.63802,30.45618 0.66675,44.53995 -4.0296,19.09498 -24.1591,28.46652 -37.16072,29.03009 l -3.13267,0.13493 c -73.6891,3.175 -81.38583,3.52425 -414.1417,11.30036 -0.1323,0 -0.26459,0 -0.39688,0 m -74.59662,-74.94852 c 3.24643,-0.0159 6.32354,0 9.21014,0.0979 22.66156,0.6694 35.07581,9.91659 47.84461,21.0185 6.54843,5.69648 9.78958,14.74788 12.62591,22.73565 1.41023,3.94758 3.72004,10.41929 5.44513,12.17083 332.24522,-7.83431 339.93666,-8.17033 413.45643,-11.37708 l 3.12737,-0.13758 c 4.1275,-0.17992 16.77988,-3.87615 18.82511,-13.60223 2.32569,-11.02784 0.50535,-26.19375 -0.95779,-38.38311 -1.80446,-15.04421 -2.8919,-24.12735 2.09814,-30.05666 a 12.152312,12.152312 0 0 1 8.56456,-4.34182 c 13.12863,-0.83079 43.04242,6.53521 78.00977,15.54692 9.2922,2.39713 17.3196,4.46352 22.4261,5.60123 18.3912,4.08781 20.9603,2.64583 25.6037,0.0344 1.0054,-0.56357 2.0505,-1.15094 3.2068,-1.74361 5.2149,-6.64898 19.759,-40.78287 27.6912,-59.39896 3.9529,-9.27893 7.6888,-18.04458 10.4987,-24.24112 l 0.9525,-2.10079 c 3.2729,-7.18344 9.7102,-21.32542 10.6363,-27.5299 -52.5833,-28.47447 -110.06671,-58.06282 -140.59963,-72.3662 -14.605,-6.84741 -39.5605,-11.44058 -55.63658,-10.23408 -36.0971,2.70404 -84.24333,7.49035 -126.07396,12.52273 -2.98979,2.72521 -9.26041,11.46704 -13.94883,17.99166 -15.10242,21.01322 -25.0481,33.88255 -36.03889,35.56265 -28.24163,4.31271 -100.44906,10.79236 -121.25325,8.01688 -18.33033,-2.46063 -39.42292,-7.99836 -57.90936,-15.19502 -24.43956,-9.525 -46.00046,-27.86857 -62.06596,-42.79371 -21.19841,-19.72204 -43.76208,-51.82129 -53.74216,-67.69629 -10.05417,-15.98348 -16.50471,-30.02227 -19.69029,-42.91013 -2.03729,-8.20208 1.5531,-17.55246 5.02708,-26.59591 1.25677,-3.26232 3.21998,-8.36878 3.74385,-11.15748 -15.74535,-12.08882 -61.74845,-42.28042 -84.90479,-56.07579 -21.43125,-12.76879 -32.54375,-18.91771 -48.79181,-24.18292 -17.39106,-5.64092 -33.15758,-3.25967 -51.46675,2.04258 -14.2875,4.1328 -19.54477,7.62794 -30.20483,17.48896 -36.20294,33.48302 -59.79054,32.67075 -72.41381,32.24742 -1.69863,-0.0582 -3.92113,-0.13494 -5.04561,-0.0159 -2.57439,3.62743 -3.48191,12.11791 -4.29418,19.65325 -0.81227,7.53533 -1.71715,16.05227 -4.34446,23.78339 -2.99773,8.83179 -8.30792,20.23798 -13.91444,32.31621 -8.13329,17.51277 -17.359308,37.34329 -18.639888,47.92927 -0.88636,7.29985 -2.09021,15.9676 -3.33905,24.97931 -2.67229,19.23256 -7.10935,51.16778 -5.84464,58.0787 4.04283,7.21783 35.123438,33.26076 53.779208,48.88969 11.3956,9.55146 22.1562,18.57111 29.41902,25.18306 8.56456,7.78933 1.50812,18.25624 -13.93561,41.12417 -5.95577,8.82386 -16.36183,24.24907 -19.26431,31.61772 20.20358,8.57515 113.96133,26.01119 156.99316,28.76549 18.14248,1.15623 43.98169,-0.18785 69.00069,-1.48696 16.78781,-0.87311 32.84008,-1.70921 46.1354,-1.77535" id="path1" />
  </g>
  </svg>