<svg viewBox="0 0 4493.8583 3178.5827" version="1.1" id="svg21" stroke="currentColor" fill="currentColor">
  <title id="title1">Circuit of the Americas F1 CRAFTY LITTLE THINGS SHEFFIELD</title>
  <path d="m 1807.5481,3028.5464 c -46.929,9.9109 -112.679,-11.4523 -199.5111,-64.5716 -52.0232,-31.7897 -125.5153,-76.6858 -212.6593,-129.8895 -366.6235,-223.863 -980.21131,-598.5103 -1231.83006,-756.2433 -19.3634,-12.1431 -51.94662,-37.8794 -52.9482,-73.8246 -0.3441,-12.0408 2.84218,-34.7514 27.8329,-52.4588 136.15173,-96.3836 544.71887,-334.3948 598.85215,-348.8388 59.05299,-16.3756 135.66383,59.8197 295.61561,236.3041 16.968,18.7241 33.4916,36.9161 48.9833,53.7684 11.7301,12.7295 22.2928,25.0311 32.4069,36.8511 29.2479,34.1885 52.3471,61.2197 89.2229,78.8555 48.1259,23.0416 142.8315,30.1422 197.6939,22.1372 38.5366,-5.5517 68.9242,-26.0214 98.5415,-45.7571 6.5393,-4.3651 12.9797,-8.6281 19.2503,-12.6197 9.2239,-5.8655 18.4812,-11.4429 27.4655,-16.8577 21.3024,-12.8082 50.498,-30.3706 55.0123,-40.1983 19.2302,-41.6016 41.4112,-140.6393 31.5055,-187.005 -8.8672,-41.594 -57.5561,-98.1954 -100.5375,-148.1421 -27.3714,-31.8194 -53.2197,-61.8832 -71.4859,-90.2922 -11.4828,-17.8725 -29.1011,-39.3298 -46.1227,-60.0713 -41.5003,-50.5419 -74.2822,-90.5306 -67.7987,-129.0281 2.2862,-13.5753 10.5543,-32.9307 36.9093,-47.998 41.3011,-23.5821 117.9122,-30.0911 160.777,-13.6757 47.5133,18.2101 90.4124,62.0855 131.8978,104.4542 9.1358,9.2963 18.1688,18.5744 27.1877,27.4715 22.6496,22.3014 31.2692,50.8666 38.1789,73.8217 3.295,11.013 8.8813,29.4307 13.0934,31.3669 21.4584,9.8154 111.5584,8.7436 153.8195,0.7652 3.8253,-4.0693 7.5221,-16.0772 8.3148,-24.4046 -20.748,-24.6469 -61.6319,-66.4314 -104.6949,-110.4186 -192.0986,-196.2207 -237.3278,-251.8154 -213.9774,-298.3262 15.381,-30.6432 48.1633,-42.3006 464.4359,-134.67625 166.2024,-36.86828 354.5631,-78.67087 482.9022,-113.89152 354.2062,-97.22398 700.1659,-220.06646 991.8742,-327.40415 169.7955,-62.4853 400.9329,-166.92224 539.0281,-229.30263 26.485,-11.96155 49.8595,-22.53425 69.0943,-31.13522 10.9682,-4.89058 22.5145,-10.52296 34.2947,-16.22283 64.8013,-31.43098 131.8759,-64.00238 179.394,-26.80563 53.3619,41.82229 5.3515,128.69405 -33.2791,198.4972 l -2.7666,5.03353 c -29.7229,53.86669 -86.3289,137.64124 -141.0783,218.68288 -33.7179,49.90189 -68.5942,101.52926 -95.4689,143.70839 -17.9449,28.16305 -39.2861,63.47647 -61.8304,100.82274 -84.3195,139.68265 -124.2804,202.72409 -153.0198,220.74699 -39.5061,24.7322 -404.9126,147.4315 -449.8694,150.9315 -44.3357,3.3874 -72.6632,-26.267 -95.4325,-50.115 -9.1646,-9.5447 -17.748,-18.5931 -27.1761,-25.9024 -14.8225,-11.5339 -45.3478,-29.7073 -83.0863,-21.8828 l -0.1497,0.013 c -35.4708,7.5003 -70.1098,61.4256 -103.5665,113.5724 -44.4531,69.2524 -90.458,140.8298 -164.8704,157.7546 l -1.1011,0.2283 c -40.5505,8.5747 -108.6252,-13.2128 -215.3994,-49.9672 -44.0499,-15.18 -110.3828,-38.0057 -128.0603,-38.0829 -91.1114,16.4316 -157.6895,74.4663 -183.92,158.4311 -5.5987,17.8971 -7.6919,45.6752 -9.9134,75.1193 -4.1015,54.0363 -8.7321,115.2921 -36.7928,164.9284 -22.99,40.6096 -66.8778,61.3415 -105.6157,79.6116 -26.8181,12.6447 -54.5506,25.7379 -67.3887,42.0713 -13.81,17.5842 -18.596,47.8301 -23.65,79.8389 -6.9793,43.8405 -14.7774,93.5351 -48.1105,135.2375 -48.5699,60.7816 -135.0013,124.0059 -211.2638,179.7949 -26.5907,19.4439 -51.7214,37.8522 -73.6103,54.8763 -100.8461,78.5532 -139.697,121.1998 -166.2735,182.5529 -25.2398,58.2178 54.9878,214.6327 108.0779,318.1398 67.1338,130.9278 111.4998,217.4293 54.3522,256.2351 a 88.21,88.21 0 0 1 -31.7398,13.3482 M 204.84925,2006.077 c 0.87555,0.6029 1.75988,1.1946 2.64489,1.7058 251.15348,157.4548 864.50086,531.9388 1230.95156,755.701 87.1462,53.2236 160.72,98.1304 212.7048,129.9347 71.0075,43.4435 111.4204,53.8419 129.8876,54.8239 -8.5154,-32.3425 -43.2604,-100.1005 -69.6683,-151.5832 -70.8321,-138.1385 -151.1266,-294.6968 -110.3747,-388.7477 36.4208,-84.033 93.0066,-138.3075 191.3329,-214.8963 22.8731,-17.8233 48.4902,-36.5499 75.5891,-56.3852 72.1132,-52.6887 153.8034,-112.5322 195.4928,-164.7007 19.6861,-24.6206 25.2065,-59.5428 31.0473,-96.556 6.5113,-41.0276 13.1909,-83.4641 40.313,-117.9805 24.9114,-31.7121 63.267,-49.8068 97.1079,-65.7755 28.9566,-13.6485 58.8834,-27.7825 68.9156,-45.5612 18.9893,-33.5498 22.8843,-85.0352 26.3359,-130.4687 2.5973,-34.2599 5.0345,-66.6084 13.4512,-93.5116 35.8186,-114.7293 126.1324,-193.5569 249.2692,-215.3461 30.1321,-5.4495 78.5071,10.4756 168.5217,41.4586 55.5234,19.1304 148.4543,51.123 171.4617,47.2577 41.2633,-9.3724 77.9651,-66.5078 113.4464,-121.7593 42.6637,-66.3763 86.7803,-135.1467 156.0629,-149.783 l 0.4569,-0.053 c 51.3745,-10.6397 106.2756,3.0562 150.6557,37.5979 14.1917,11.0436 25.8604,23.2466 36.1779,34.0464 9.597,10.0582 24.0772,25.2261 29.3801,24.77 39.3251,-4.4856 378.7745,-119.0802 412.505,-138.68047 18.2355,-14.93795 83.0526,-122.27954 125.9119,-193.28958 22.8521,-37.81495 44.389,-73.52373 62.8795,-102.53548 27.4893,-43.12653 62.6757,-95.20274 96.7026,-145.56343 53.7205,-79.50238 109.2701,-161.71435 137.1824,-212.27965 l 2.8118,-5.07905 c 9.6462,-17.46204 35.3884,-64.00955 43.8522,-91.20013 -21.9561,4.941 -59.3869,23.10938 -81.5635,33.85476 -12.5886,6.10604 -24.9293,12.0926 -36.6399,17.35146 -19.1413,8.53977 -42.4146,19.03022 -68.7915,30.96911 -139.1152,62.8716 -371.9274,168.05714 -544.5349,231.55425 -293.3185,107.94791 -641.3483,231.51453 -998.5332,329.5281 -130.3162,35.79302 -319.7579,77.82208 -486.8813,114.90828 -147.0346,32.62423 -324.5038,71.99153 -393.2495,93.66303 34.4759,48.0571 129.0889,144.7691 183.9237,200.8064 51.5063,52.6091 95.9772,98.0534 116.7811,124.7375 23.2828,29.8187 4.9274,81.8793 2.7567,87.7093 -12.3167,33.1861 -34.9065,54.7417 -63.494,60.7463 l -0.8736,0.1923 c -36.8621,7.3098 -156.0467,16.5179 -206.1142,-6.3379 -38.1009,-17.5235 -49.5296,-55.1749 -57.7649,-82.6874 -4.8929,-16.0923 -9.4311,-31.2996 -17.0269,-38.7817 -9.4128,-9.254 -18.8366,-18.9497 -28.2921,-28.5713 -35.2663,-36.0754 -71.7515,-73.368 -102.3825,-85.0961 -17.9171,-6.8952 -58.6652,-3.3916 -80.3547,3.7533 10.2884,16.2598 30.5519,40.9832 43.9184,57.3076 18.533,22.569 37.6644,45.9545 51.7577,67.832 15.1556,23.5662 39.2148,51.4924 64.6144,81.0748 51.843,60.2614 105.4518,122.6329 118.7173,184.8063 15.4292,72.0293 -15.6103,192.0114 -37.2844,238.911 -15.1883,32.9062 -50.2737,54.0132 -87.4564,76.391 -8.4703,5.0731 -17.1255,10.2885 -25.7781,15.7856 -5.7819,3.693 -11.6774,7.6208 -17.7734,11.6424 -33.7464,22.4914 -75.674,50.4653 -132.4057,58.7584 -69.2938,10.1276 -179.9859,1.9072 -245.3479,-29.3572 -52.645,-25.1938 -83.584,-61.37 -116.3032,-99.6949 -9.494,-11.0768 -19.3882,-22.6508 -30.3586,-34.5626 -15.6902,-17.0003 -32.30522,-35.373 -49.48627,-54.2838 -62.71084,-69.2152 -177.88641,-196.3343 -217.04083,-210.4531 -52.83393,21.8032 -394.6704,216.0678 -549.7461,321.9928 m 2399.571,-717.916 z m -931.9946,-207.3516 z m -36.9422,-18.5542 0.1589,-0.019 z" id="path21" />
</svg>