<svg viewBox="0 0 1189 841" version="1.1" id="svg1" stroke="currentColor" fill="currentColor">
  <title id="title1">Bahrain International F1 CIRCUITS CRAFTY LITTLE THINGS SHEFFIELD</title>
  <g id="layer1">
    <path d="m 930.84517,722.36282 c -78.7876,-0.0582 -219.5248,-0.97102 -365.09327,-1.91823 -182.51751,-1.18268 -368.54076,-2.38125 -417.06005,-1.70656 -12.48569,0.16934 -17.12913,-6.50875 -18.90448,-10.50131 -2.52148,-5.69119 -1.90236,-13.20271 1.41816,-17.10531 8.17827,-9.60438 15.01511,-17.06827 20.5158,-23.07167 15.68714,-17.11589 19.00237,-21.11904 18.90712,-31.95108 -0.0529,-5.8764 -4.20158,-15.22942 -8.59896,-25.13542 -7.44802,-16.78516 -15.875,-35.79018 -13.44877,-55.41168 10.42988,-83.95494 52.00385,-346.45865 64.06092,-418.52056 0.48948,-2.93423 2.19868,-7.21254 7.53004,-10.94846 8.04069,-5.63033 22.98964,-8.84767 31.97754,-6.87917 12.14967,2.64584 28.14902,21.14286 53.30031,51.15719 l 7.17021,8.54604 c 15.7771,18.7034 41.39935,43.07152 48.94792,49.83427 14.83518,13.28738 30.04079,21.73817 49.32891,27.39761 9.07786,2.65906 28.12786,11.2977 35.34304,24.93697 8.16505,15.46225 6.43732,36.95965 4.7625,57.7559 -1.12448,14.03615 -2.29658,28.55119 0.61119,35.73462 5.00856,12.40102 55.2159,47.58532 85.3149,68.6779 34.35614,24.07708 46.7307,33.07292 50.40841,39.42292 4.17248,7.20989 4.00315,15.56808 -0.47096,22.92614 -7.09612,11.65754 -22.80973,18.25625 -33.40893,17.78 -25.019,-1.25677 -82.06317,-8.93762 -132.18054,-15.68714 -30.13075,-4.05607 -58.52584,-7.87665 -73.68117,-9.42446 -10.90612,-1.10861 -26.77319,-0.79375 -35.8775,2.54529 -16.70314,6.11187 -27.49285,22.64569 -37.98623,41.275 17.08679,4.33652 61.43096,9.3345 89.32333,9.60173 6.9215,0.0661 15.38553,0.16668 24.75178,0.26458 28.88985,0.33602 64.93668,0.75671 91.93476,0.65352 19.10028,-0.0741 45.64592,0.0556 76.46459,0.20373 82.87543,0.39952 186.76933,0.89694 228.33543,-2.02935 6.7839,-0.4789 15.6977,-9.45092 17.6477,-17.77471 2.9739,-12.67884 1.2118,-36.85117 -6.141,-52.60446 -6.5749,-14.08642 -22.7674,-30.1625 -43.2858,-42.96304 -9.824,-6.13304 -25.2095,-11.37708 -40.0712,-16.42004 -16.6502,-5.65944 -33.8375,-11.50409 -45.3945,-19.29606 -17.3276,-11.684 -31.59922,-31.82144 -38.19793,-53.87711 -5.64091,-18.85421 -7.96925,-47.02439 2.38125,-69.61187 3.35492,-7.30515 6.98236,-15.61042 10.75532,-24.23319 11.76076,-26.89489 25.09306,-57.41458 36.74796,-73.06733 8.2841,-11.13896 32.8824,-29.47194 50.3211,-24.80204 17.7536,4.7625 31.8082,17.4625 42.9657,38.89375 7.3104,14.02291 18.0367,31.22083 29.4084,49.42416 3.7968,6.08542 7.6412,12.23434 11.43,18.38854 20.4947,33.3084 202.62323,329.45387 225.68963,373.0625 2.7729,5.2414 6.1939,10.73679 9.5012,16.05492 8.4984,13.64191 14.1102,22.65891 12.0253,30.73664 a 12.565062,12.565062 0 0 1 -5.9954,7.85019 c -30.2234,17.21644 -56.66063,31.45366 -74.81363,31.66269 -11.0199,0.1217 -27.6146,0.16933 -48.6648,0.1561 M 199.9972,699.3917 c 79.83008,-0.0132 223.96979,0.81492 365.99283,1.62719 176.31304,1.01071 361.20124,2.07168 413.37174,1.44991 13.3006,-0.16139 40.17443,-14.90133 60.11073,-26.2255 -1.9553,-3.89202 -5.5324,-9.6467 -8.1412,-13.84035 -3.4819,-5.60123 -7.0829,-11.37708 -10.1732,-17.2376 C 998.40387,602.11499 816.84417,306.55689 796.40767,273.312 c -3.757,-6.11452 -7.5803,-12.23169 -11.3479,-18.28007 -11.5517,-18.52083 -22.4579,-35.98333 -30.0964,-50.68358 -8.6995,-16.71373 -18.5949,-26.06675 -31.1441,-29.43754 -5.207,-1.40758 -22.5398,8.06979 -29.464,17.37254 -10.2923,13.82977 -23.159,43.23821 -34.5043,69.17002 -3.8312,8.76036 -7.5089,17.16352 -10.9114,24.57715 -8.09627,17.63712 -5.8209,41.12154 -1.3891,55.87735 5.2917,17.72708 17.0603,34.43552 30.6917,43.60862 9.4747,6.37911 25.4555,11.79778 40.931,17.04975 15.8988,5.38957 32.3533,10.97228 44.0558,18.25625 11.2977,7.04321 38.8699,26.13819 50.5354,51.08575 9.4933,20.30677 11.2501,49.17546 7.456,65.35209 -3.519,15.00187 -18.6452,31.84789 -35.5362,33.02529 -42.3042,2.94746 -146.60829,2.38125 -229.80916,1.905 -30.76575,-0.17198 -57.277,-0.32015 -76.29525,-0.26459 -27.14625,0.082 -63.27775,-0.36777 -92.2364,-0.7276 -9.34772,-0.11642 -17.80116,-0.22225 -24.71208,-0.29369 -15.82208,-0.16404 -40.62412,-2.07698 -61.70083,-4.7625 -42.8625,-5.45835 -45.67767,-10.48279 -47.92927,-14.51768 a 11.009312,11.009312 0 0 1 0,-10.74473 c 13.20271,-23.91834 26.86314,-48.65952 52.63885,-58.11044 12.75292,-4.67783 31.75,-4.87627 44.14838,-3.62215 15.45166,1.56105 42.67729,5.20436 74.28177,9.4324 49.74166,6.66221 106.3916,14.24517 130.61949,15.44373 4.55084,0.29369 13.07307,-3.80471 15.875,-8.40052 0.93398,-1.53723 0.68263,-2.14048 0.18521,-2.99244 -3.06652,-4.10633 -26.26254,-20.37292 -44.87068,-33.44598 -49.6914,-34.87737 -85.25404,-60.7351 -91.83159,-77.02285 -4.59845,-11.39031 -3.30464,-27.46904 -1.9341,-44.49233 1.38112,-17.18469 2.9501,-36.65802 -2.61938,-47.2149 -3.51102,-6.65162 -16.56291,-13.59958 -24.23583,-15.85648 -22.01333,-6.48229 -39.37794,-16.13958 -56.31921,-31.34254 -5.82348,-5.18319 -33.04645,-30.69696 -50.7021,-51.65725 l -7.20196,-8.58837 c -14.45154,-17.26936 -36.24791,-43.3123 -43.33081,-45.1538 -4.09046,-0.89164 -13.69219,1.44463 -16.98625,3.58246 -12.4116,74.41406 -53.38233,333.16069 -63.70373,416.26631 -1.76741,14.26369 5.52715,30.69167 11.96975,45.17496 5.45836,12.29519 10.17852,22.91821 10.27377,32.8295 0.16404,18.95475 -7.9375,27.78125 -24.05327,45.37075 -4.60639,5.02708 -10.17323,11.08868 -16.64758,18.56052 h 0.0344 c 10.86644,-0.1614 28.52738,-0.23813 51.4059,-0.24077" id="path21" />
  </g>
  </svg>