<svg viewBox="0 0 1189 841" version="1.1" id="svg1" stroke="currentColor" fill="currentColor">
  <title id="title1">Baku City F1 CIRCUITS CRAFTY LITTLE THINGS SHEFFIELD</title>
  <g id="layer1">
    <path d="m 1131.7852,279.01862 c -1.1066,1.07004 -2.5539,1.85136 -4.396,2.4346 -13.298,4.26342 -104.6358,27.01066 -210.3848,53.34712 -120.16565,29.92484 -256.36437,63.8449 -309.0692,78.35568 -11.71211,3.22791 -30.25217,14.16956 -46.60559,23.82921 -9.9178,5.85591 -19.284,11.38538 -26.80918,15.03274 -31.5925,15.31297 -98.46274,51.04687 -136.16126,71.58864 -1.33108,1.97764 -3.14275,8.24247 -4.48359,12.87761 -3.54618,12.25783 -7.95444,27.48754 -18.84144,38.03381 -0.0852,0.0831 -0.17614,0.16803 -0.26703,0.25294 -11.17403,10.63543 -27.49518,20.46614 -44.77637,30.87292 -16.79018,10.10841 -34.1479,20.5595 -46.44986,31.73145 -11.38776,10.37452 -24.90784,30.54943 -35.74486,46.77231 -17.36342,26.00532 -24.55031,36.7613 -35.45999,33.01818 -3.89527,-1.34605 -13.29789,-7.78381 -59.17918,-40.5514 -28.75227,-20.52814 -72.205303,-51.55704 -78.80644,-54.32085 -11.596705,-4.33486 -7.674601,-17.61325 -3.527093,-31.66789 2.626186,-8.87993 5.891445,-19.93638 6.088063,-28.62187 0.10194,-4.55504 0.07771,-9.40022 0.05212,-14.37414 -0.09792,-19.59774 -0.212118,-41.80615 7.319486,-57.52386 5.012787,-10.46549 9.685838,-20.52066 14.018465,-29.81753 16.402892,-35.27277 24.622592,-52.51938 32.782582,-59.15798 17.64442,-14.43912 154.74436,-53.47252 182.51246,-57.04497 4.12298,-0.52772 8.06641,0.56073 11.11617,3.07106 6.20517,5.0987 6.71669,13.86239 7.21206,22.33436 0.15416,2.56791 0.38728,6.63962 0.86427,8.59642 1.54535,0.39343 5.44565,0.28087 7.65169,0.21493 4.57301,-0.13358 9.27599,-0.27637 13.5555,1.57673 4.53377,1.95699 6.90968,5.69851 8.38791,8.75658 3.44505,-1.24657 7.99585,-2.37171 12.38849,0.26754 a 11.025187,11.025187 0 0 1 5.24651,8.39828 c 1.56848,14.97211 8.13256,52.63477 11.70255,68.76761 0.49499,2.21934 0.64035,5.06704 0.86433,9.91923 0.0402,0.92743 0.0937,2.07917 0.15576,3.2965 4.48459,-2.16104 9.49079,-4.73084 12.11956,-6.20368 15.46659,-8.6598 49.45071,-27.01691 79.68249,-42.08669 7.63875,-3.80908 16.63285,-8.11924 25.58851,-12.40594 14.5583,-6.97242 30.80809,-14.74702 38.4424,-19.18071 -0.66535,-1.71034 -1.69827,-3.91442 -2.41206,-5.43416 -3.36448,-7.14101 -7.17872,-15.22774 -2.65002,-22.51786 9.19056,-14.78174 79.42354,-36.54123 80.13245,-36.76013 20.14138,-6.19884 40.0118,-11.03675 54.51296,-14.56644 4.74838,-1.15594 9.58532,-2.33022 13.20278,-3.27411 -1.53141,-7.92381 -5.13086,-22.23501 -8.16719,-34.30017 -14.81643,-58.90596 -17.82016,-72.95028 -4.56246,-76.54251 8.21443,-2.22786 19.43667,-5.33661 32.93442,-9.06015 51.62334,-14.27229 138.02219,-38.16402 215.54816,-57.09742 49.12014,-11.98994 95.49427,-21.17037 126.17997,-27.24443 12.2487,-2.42666 21.9283,-4.34855 28.7578,-5.83358 10.234,-2.2318 13.6718,8.27052 18.4342,22.80042 3.2769,10.00596 7.3658,23.95964 11.8303,40.34967 6.1885,22.7506 12.3903,47.65083 16.582,66.5985 5.8577,26.472 7.9825,37.56503 2.8876,42.49082 m -746.925,230.61935 a 16.002,16.002 0 0 1 3.49711,-2.57733 c 32.4812,-17.69962 103.03563,-55.5961 137.61955,-72.35486 6.80716,-3.30135 15.83705,-8.63152 25.39558,-14.2783 18.25774,-10.77945 37.14058,-21.92744 51.36488,-25.84569 52.9373,-14.57632 189.26059,-48.5225 309.53814,-78.4781 90.36724,-22.49948 176.25574,-43.88937 202.47284,-51.06678 -3.5711,-24.9241 -26.7121,-114.54246 -35.6189,-137.94425 -6.0507,1.24758 -13.4193,2.70483 -22.0616,4.41347 -30.5151,6.04441 -76.63225,15.17384 -125.33237,27.06322 -77.23617,18.86073 -163.46112,42.70191 -214.97296,56.94604 -10.46286,2.89237 -19.56335,5.41061 -26.96127,7.43366 1.27833,11.26639 8.00355,37.99676 12.25492,54.92932 10.03181,39.87931 10.86753,45.03302 8.1539,50.12636 -2.54547,4.7875 -4.9092,5.3671 -27.44321,10.85303 -14.2673,3.47241 -33.80322,8.22588 -53.36655,14.25504 -32.85761,10.11378 -59.94678,22.11451 -67.90165,27.5399 0.62732,1.61068 1.6178,3.70908 2.30036,5.15432 3.31958,7.05102 9.52874,20.18363 -1.21749,27.62688 -6.77244,4.69384 -24.84162,13.35244 -43.99381,22.51706 -8.86041,4.24264 -17.75023,8.50211 -25.30803,12.27293 -29.9211,14.91468 -63.55101,33.07796 -78.85628,41.64775 -0.21104,0.11707 -21.0978,11.76951 -27.95739,12.21087 a 10.583333,10.583333 0 0 1 -7.75956,-2.68458 c -4.5061,-3.99045 -4.9969,-10.46411 -5.5445,-22.51903 -0.10655,-2.42659 -0.25906,-5.74401 -0.43403,-6.70045 -3.09972,-14.02982 -8.21046,-42.71777 -10.80411,-61.09507 -2.29729,0.44536 -4.78812,0.48298 -7.3322,-0.44364 -5.57626,-2.02036 -7.7731,-7.13446 -9.08559,-10.19079 -0.11874,-0.28628 -0.26894,-0.62834 -0.41858,-0.95692 -1.1311,-0.0102 -2.8175,0.0376 -4.07202,0.0804 -6.76516,0.19633 -16.02547,0.47515 -22.57806,-6.17456 -4.99768,-5.06318 -5.46403,-13.05132 -5.91319,-20.77168 -0.11295,-1.92149 -0.27183,-4.64811 -0.55014,-6.78014 -37.8506,6.48125 -157.7116,43.33541 -168.57758,52.16584 -4.95533,4.04781 -16.43327,28.61112 -27.4612,52.33145 -4.35588,9.36018 -9.05962,19.47484 -14.10857,30.0177 -5.618334,11.73946 -5.518334,31.61602 -5.434349,49.15506 0.02584,5.1614 0.04933,10.18318 -0.05614,14.89836 -0.255853,11.23083 -3.919204,23.63911 -6.865334,33.60992 -1.031449,3.49173 -2.328765,7.88195 -2.998435,10.9079 10.767618,6.27022 34.273334,22.79964 78.042364,54.05183 19.61895,14.01185 41.40524,29.56373 50.74003,35.71511 4.17144,-4.99738 11.01354,-15.24208 16.30245,-23.1662 12.01844,-17.99623 25.68521,-38.40802 38.84281,-50.36243 13.72138,-12.44497 31.90945,-23.39595 49.49494,-33.9856 16.33585,-9.83913 31.77267,-19.13284 41.40016,-28.29817 7.13145,-6.94613 10.93759,-19.54906 13.87075,-29.6772 2.67359,-9.25278 4.88988,-16.91127 9.6975,-21.55781" id="path9" />
  </g>
  </svg>