<svg viewBox="0 0 1189 841" version="1.1" id="svg1" stroke="currentColor" fill="currentColor">
  <title id="title1">Barcelona-Catalunya F1 CIRCUITS CRAFTY LITTLE THINGS SHEFFIELD</title>
  <g id="layer1">
    <path d="m 265.46549,584.45292 c -9.58586,0.0423 -18.23773,0.0688 -25.86038,0.0794 -14.22135,0.0185 -28.88456,-8.66511 -34.86414,-20.6375 -3.53484,-7.06967 -3.92113,-16.83015 -4.32859,-27.16477 -0.43656,-11.1125 -0.93398,-23.6855 -5.50862,-30.353 -10.20763,-14.86165 -22.30173,-18.99708 -36.30348,-23.7834 -5.04031,-1.72773 -10.2526,-3.51102 -15.56808,-5.85787 -2.83369,-1.25413 -5.63563,-2.46856 -8.41375,-3.66977 -28.9904,-12.54919 -56.372128,-24.40252 -70.114588,-60.69542 -10.05416,-26.53771 -9.26041,-48.62777 2.64584,-73.86902 9.73137,-20.62162 29.86616,-41.67452 53.861228,-56.31656 22.32289,-13.62075 53.31354,-23.26217 77.10752,-23.99506 29.19677,-0.89959 163.72151,-2.31246 197.64374,-1.45786 10.31875,0.26459 21.53973,6.25475 30.81867,16.45709 10.99079,12.07823 16.93333,27.2362 15.94114,40.54475 -2.59556,34.30322 -41.87031,68.39214 -71.00622,71.20731 -34.2953,3.30729 -69.9479,3.28877 -107.68806,3.28877 -13.89063,0 -28.20459,0 -43.05829,0.15346 -7.75494,0.0794 -20.02896,3.08768 -22.06361,11.03577 -2.57175,10.05416 3.175,21.30425 10.16,25.527 6.87917,4.15925 15.40404,9.83721 25.29152,16.40416 31.67327,21.06877 79.53904,52.91667 110.57731,57.79823 37.2401,5.86052 79.11042,6.61459 99.59446,4.34181 8.23118,-0.91281 20.74598,-8.14387 22.02656,-11.86656 2.34421,-6.7945 2.22515,-17.88319 2.11667,-27.66483 -0.10848,-10.58333 -0.20373,-19.7485 2.26748,-26.47685 4.72016,-12.88786 16.02316,-29.46665 27.99027,-47.01646 3.04006,-4.45559 6.14362,-8.99584 9.2075,-13.59429 23.97918,-35.89338 44.89185,-66.95811 57.9755,-83.60834 10.23408,-12.9831 39.1451,-22.77268 53.64691,-23.03727 14.64998,-0.32808 34.21327,4.92125 47.7864,12.61798 29.29202,16.61584 83.94435,48.76006 141.81666,82.79342 72.44556,42.59791 147.3544,86.66691 184.90935,107.59545 0.67734,0.37571 3.12738,0.16934 5.59594,-1.5875 2.11665,-1.49489 2.84425,-3.13795 2.75695,-3.64331 -2.82045,-15.61041 -18.89124,-59.99162 -29.78149,-82.3251 -2.58498,-2.30452 -13.42231,-5.16996 -19.95752,-6.90033 -11.72898,-3.10092 -21.85458,-5.7838 -27.25208,-11.41942 -8.09625,-8.4455 -29.58042,-30.86365 -13.35882,-64.29375 9.76577,-20.10833 30.27363,-40.98396 72.57786,-26.09056 17.12385,6.03514 32.32155,11.03577 47.01115,15.875 18.5209,6.10129 37.682,12.40896 60.8304,20.80948 11.0331,4.00579 11.0913,18.37002 6.5828,73.25254 -1.0954,13.36146 -2.1352,26.00325 -2.1299,33.30575 2.1167,1.32291 8.3899,2.38125 11.8745,2.9501 8.5222,1.42346 21.4022,3.56658 21.4974,15.27704 0.058,7.04057 0.3096,14.42509 0.5583,21.56354 0.9392,27.06688 1.8177,52.62563 -6.5961,70.24159 -9.3742,19.61091 -35.3007,47.25987 -63.6005,47.38687 -3.2015,-0.0344 -6.7099,0.0212 -10.2976,0.0344 -75.46977,0.32808 -221.58856,1.75418 -375.87503,3.25966 -158.55686,1.54782 -321.98469,3.14061 -409.02202,3.51632 m -66.7967,-307.89035 v 0 c -20.53432,0.6297 -48.50077,9.38477 -67.99792,21.28837 -20.73011,12.64973 -38.658268,31.22083 -46.791558,48.45315 -8.20209,17.40164 -11.69988,34.19739 -2.07698,59.60004 10.96698,29.0195 32.683978,38.42543 60.176828,50.33168 2.81781,1.21973 5.66738,2.45269 8.54869,3.72534 4.56935,2.02406 9.18104,3.60362 14.0679,5.2705 14.94895,5.11175 31.89022,10.90612 45.54802,30.79485 7.57766,11.03313 8.18091,26.41865 8.71537,39.99706 0.29898,7.57502 0.635,16.16075 2.41035,19.70617 2.83369,5.67531 11.21305,10.45898 18.2933,10.4484 76.77943,-0.10319 258.76249,-1.8759 434.72363,-3.59569 161.62602,-1.5875 314.22975,-3.06917 386.23872,-3.29406 h 0.032 c 18.9389,-0.082 39.8013,-21.86253 46.9874,-36.89615 6.4823,-13.57312 5.6356,-38.05237 4.8207,-61.72465 -0.2064,-5.99281 -0.4233,-12.15231 -0.5292,-18.21656 -1.8309,-0.42598 -4.2836,-0.83343 -6.1277,-1.14035 -10.1494,-1.69069 -27.1436,-4.52173 -27.2918,-20.25386 -0.079,-8.02481 0.971,-20.80947 2.1908,-35.61291 1.4525,-17.70592 3.8126,-46.39204 2.2833,-55.6604 -21.4656,-7.73641 -39.5631,-13.69748 -57.0865,-19.47068 -14.777,-4.8895 -30.06724,-9.91659 -47.35776,-16.002 -24.60625,-8.66246 -39.95208,-3.4925 -49.76813,16.75341 -8.84766,18.22715 -2.35479,30.607 10.08063,43.61656 2.14048,1.97909 12.46981,4.71223 18.64254,6.35 14.59177,3.86292 27.19652,7.19932 31.60448,16.17928 11.64164,23.71724 28.45854,70.35535 31.56744,87.54533 1.4473,7.99306 -2.4712,16.37241 -10.2209,21.86252 -8.0565,5.70441 -17.99162,6.73629 -25.35762,2.64583 -37.74541,-21.03437 -112.74949,-65.151 -185.28766,-107.80977 -57.79558,-33.99896 -112.39235,-66.10614 -141.55208,-82.64789 -10.80294,-6.12511 -26.85256,-10.31875 -38.28521,-10.20763 -10.99079,0.20638 -33.64442,8.67569 -39.42292,16.01523 -13.7107,17.43604 -38.81172,55.01481 -57.15,82.4521 -3.09827,4.63815 -6.23093,9.23661 -9.30539,13.74246 -11.30565,16.58144 -21.98423,32.23948 -25.92917,42.99479 -1.32291,3.59305 -1.23031,12.31107 -1.15358,20.0025 0.11642,11.26067 0.24871,24.02682 -3.12473,33.80317 -4.7625,13.85623 -26.58798,22.96583 -37.45971,24.17498 -21.69583,2.39977 -65.69604,1.65364 -104.54216,-4.45823 -35.00437,-5.52715 -82.92835,-37.40679 -117.92744,-60.68483 -9.70756,-6.45584 -18.08691,-12.03325 -24.60625,-15.98613 -14.64998,-8.86354 -22.75416,-28.95864 -18.46262,-45.75175 4.33652,-16.93333 23.10342,-24.7015 39.77746,-24.87083 14.9225,-0.16404 29.30525,-0.1561 43.26731,-0.15346 37.26656,0 72.49583,0.0132 105.88889,-3.20675 19.06852,-1.85208 52.36898,-27.98233 54.36129,-54.29779 0.61648,-8.14123 -3.78354,-18.67958 -11.21569,-26.84462 -5.72293,-6.29444 -12.46452,-10.28171 -17.5842,-10.41136 -33.69734,-0.8546 -167.53946,0.56092 -196.60129,1.45256" id="path20" />
  </g>
  </svg>