<svg viewBox="0 0 4493.8583 4493.8583" version="1.1" id="svg21" stroke="currentColor" fill="currentColor">
  <title id="title1">Hungaroring F1 CRAFTY LITTLE THINGS SHEFFIELD</title>
  <path d="m 3783.1349,2832.1417 c -1.44,1.85 -2.93,3.69 -4.5,5.47 -34.54,39.34 -114.53,128.87 -207.13,232.55 -181.41,203.1 -429.87,481.27 -494.4,558.71 -15.36,18.4 -35.55,28.29 -58.42,28.62 -64.88,0.92 -135.39,-78.88 -197.59,-149.31 -10.27,-11.6 -20,-22.61 -29,-32.37 -71.58,-77.86 -169.48,-171.66 -215.26,-193.58 -74.1,-35.47 -101.6,-18.51 -118.52,3.15 l -0.45,0.58 c -16.77,21.77 -29.29,55.06 23.05,120 22.58,28 77.36,64.71 130.35,100.21 70.27,47.09 142.92,95.78 174.76,144.61 48.31,74 75.06,184.26 6.17,272.49 -0.44,0.57 -0.91,1.14 -1.37,1.73 -75.43,94.51 -213.12,101.18 -285.84,44 -63.52,-50 -159.44,-125.19 -274.91,-215.75 -479.02,-375.75 -1280.74003,-1004.57 -1524.02003,-1205.93 -34.24,-28.28 -34,-85 -12.35,-120.16 19,-30.82 75.65,-68 120.11,-69.57 49.25,-1.7 116,4.39 183.08,16.73 77.45003,14.25 166.18003,32.24 239.30003,65.51 64.53,29.39 121.61,73 176.79,115.07 9.42,7.19 18.79,14.35 28.2,21.41 42.42,31.93 104.13,82.54 169.49,136.11 87.73,72 178.45,146.34 225.3,177.7 20.38,13.64 53.81,20.13 77.74,15.1 20.65,-4.35 48.52,-24.47 63.39,-45.89 14.45,-20.74 26.77,-51.18 21.73,-72.44 -8.63,-36.42 -46.92,-108 -74.86,-160.21 -8.68,-16.25 -16.84,-31.5 -23.7,-44.82 -5.35,-10.4 -12.69,-22.49 -20.48,-35.29 -30.84,-50.74 -69.25,-113.93 -43.43,-171.14 100.09,-221.69 322.73,-691.47 410.78,-866.65 25.89,-51.59 79.46,-119.25 126.67,-179 32.72,-41.38 77.31,-97.79 83.81,-115.94 -2.42,-54.22 -33.38,-158.58 -63.35,-259.58996 -29,-97.54 -56.28,-189.68 -61.2,-246.17 -5.72,-66.12 38.98,-142.42 83.87,-180.68 47.55,-40.47 117.27,-44.35 166.65,-34.45 53.85,10.77 110.93,50.64 164.79,90.55 46.44,34.39 105.35,87.43 175.13,157.63 65.83,66.17 182.59,193.09 223.11,242.49 18.84,22.99996 27,51.64996 21.8,76.62996 -4.07,19.49 -18.12,34.49 -33,50.33 -7.49,8 -23.16,24.66 -23.94,31.26 8.67,79.34 80.54,325.87 110.82,408.4 6.56,17.91 28.51,36 53.41,43.91 29.17,9.35 92.3,15.75 143,20.88 29.52,3 57.43,5.82 77.29,9 63.11,10.08 114.07,73.66 130.1,115.6 9.34,24.43 3.8,73.9 -14.41,209.07 -15.34,114 -38.54,286.31 -22,334.06 31,89.49 146.32,258.68 195.57,330.93 32.86,48.22 47.21,155.21 -2.18,218.43 m -1380.44,409.79 c 45.82,-58.66 114.7,-66.54 204.74,-23.41 75.13,36 210.42,180.83 236.77,209.49 9.25,10.06 19.3,21.43 29.89,33.41 38.86,44 111.22,125.9 143.63,125.44 1.27,0 2.5,0 5.15,-3.22 65.31,-78.37 304.1,-345.71 496,-560.52 92.49,-103.56 172.38,-193 206.72,-232.11 28.14,-32.43 21,-108.68 1.38,-137.5 -84,-123.22 -173.88,-260.87 -203.94,-347.56 -20.49,-59.1 -5.16,-189.23 18.75,-366.63 9.37,-69.68 21,-156.17 17.93,-175.67 -10.62,-26.28 -43.54,-64.81 -74.76,-69.79 -17.87,-2.86 -44.77,-5.6 -73.26,-8.48 -56.82,-5.75 -121.23,-12.28 -157.45,-23.87 -36.22,-11.59 -81.25,-40.57 -98.22,-86.92 -28.2,-76.94 -104.85,-334.74 -114.72,-425.62 -4,-36.95 23,-65.71 42.66,-86.7 5.16,-5.49 12.6,-13.55 15.42,-17.67 -0.15,-3.48 -2.5,-10.18 -7.35,-16.12 -38.72,-47.20996 -155.16,-173.70996 -218.56,-237.47996 -67.29,-67.69 -123.5,-118.39 -167.09,-150.68 -35.07,-26 -93.76,-69.46 -136.6,-78.05 -41,-8.2 -84,-0.58 -107,19 -30.68,26.15 -62.59,82.15 -59.26,120.69 4.29,49.35 31.87,142.31 58.54,232.18 33.24,111.99996 64.64,217.84996 66.37,280.48996 0.81,29.82 -25,65.22 -99.14,159 -45.19,57.1 -96.29,121.78 -119,166.92 -87.73,174.58 -309.71,642.91 -409.49,864 -10.5,23.27 18.34,70.72 39.4,105.38 8.46,13.9 16.44,27 22.93,39.66 6.7,13 14.68,27.92 23.19,43.82 33.06,61.82 70.55,131.87 81.3,177.23 13.53,57.1 -21.47,113.28 -32.53,129.14 -21.21,30.3 -62.42,65.29 -106.78,74.63 -42.54,9 -95.44,-1.3 -131.61,-25.53 -49.69,-33.23 -141.77,-108.73 -230.81,-181.77 -64.77,-53.09 -125.92,-103.24 -167.17,-134.28 q -14.28,-10.76 -28.57,-21.72 c -52.07,-39.74 -105.93,-80.83 -163.22,-106.92 -65.78,-30 -149.49,-46.84 -222.78003,-60.31 -62.3,-11.45 -123.48,-17.15 -167.87,-15.61 -18.9,0.64 -55.22,24.57 -62.4,36 -5.38,8.74 -5.38,25 -2.3,29.11 242.11,200.35 1043.39003,828.79 1522.15003,1204.27 115.53,90.59 211.47,165.85 275,215.81 44.79,35.24 138.16,28.58 186.92,-32.52 0.28,-0.35 0.59,-0.72 0.88,-1.09 59.43,-76.09 2.45,-171.91 -9.63,-190.44 -24,-36.74 -93.54,-83.38 -154.91,-124.5 -60,-40.22 -116.7,-78.22 -146,-114.56 -62.38,-77.34 -70.47,-147.14 -24.06,-207.43 z m 1157.47,-1477.09 a 0.21,0.21 0 0 0 0,0.07 0.21,0.21 0 0 1 0,-0.07 m -2836.32003,680.86 0.08,-0.11 z" id="path12" />
</svg>