<svg viewBox="0 0 4493.8583 4493.8583" version="1.1" id="svg21" stroke="currentColor" fill="currentColor">
  <title id="title1">Imola F1 CRAFTY LITTLE THINGS SHEFFIELD</title>
  <path d="m 231.4431,3399.3655 c -29,1 -47.8,-4 -61.14,-15.43 -24.23,-20.71 -51.86,-49.05 -50.86,-84.33 0.4,-13 4.3,-79.49 43.54,-111.56 82.88,-67.6 163.05,-138.42 240.63,-207 51.73,-45.67 105.21,-92.94 158.89,-138.7 7.93,-7 16.45,-24.55 -8.26,-88.64 l -1.86,-4.78 c -12.91,-33.34 -30.63,-79.11 -20.53,-117.52 70.32,-267 180.31,-534.73 287.34,-795.33 l 30.38,-74 c 12.52,-30.57 28.12,-68.64 66.58,-93.68 29,-18.85 67.31,-38.41 107.89,-59.11 39.75,-20.26 80.85,-41.22 107.66,-59.24 26.44,-17.75 36.2,-47.27 35.57,-59.14 -2.1,-37.75 13.08,-74.71 42.78,-104 29.92,-29.41 273.86,-76.75 276.17,-77.08 102.3,-14.36 192.33,-24.38 355.39,-42.51 l 117.92,-13.14 c 69.65,-7.8 217,-0.82 280.37,10.23 81.31,14.14 190,36.86 285.65,56.83 93.26,19.48 198.6,41.48 217.82,42.12 142.28,-0.11 256.07,-1.35 376.28,-2.68 94.77,-1 190.87,-2.08 302.79,-2.57 32.27,-0.48 79.52,-7.83 104.88,-16.41 103.62,-35 204.84,-77.26 302.67,-118.14 104.37,-43.6 212.19,-88.64 323.6,-125.19 34,-11.16 104.13,0.76 127.48,39.38 32,53 61.1,120.69 88.91,206.78 15.82,49.07 -11.23,98 -68.93,124.85 -28.69,13.34 -59.58,26.79 -92.29,41.06 -91.18,39.76 -194.62,84.84 -238.14,124.15 -35.83,32.38 -88.39,85.18 -144,141 -81.14,81.47 -173,173.74 -251.39,242.1 -73.89,64.46 -144.3,117.22 -247.93,165.33 -89.31,41.47 -195.09,85.84 -288.49,125 -24.81,10.43 -49,20.53 -71.87,30.23 -18.69,7.9 -39.05,7.12 -55.91,-2.19 -12.87,-7.1 -28.95,-22 -35.11,-53 -153.42,-0.35 -315.4,4.47 -472.69,9.14 -183.51,5.48 -357.41,10.63 -508.23,7.59 -28.53,-0.57 -56,-12.13 -80.23,-22.35 -6.22,-2.64 -12.39,-5.22 -18.35,-7.52 -11.2,-4.29 -25,-5 -32.37,-4.08 -4.09,5.7 -8.6,11.94 -13.4,18.59 -29.61,41 -91.18,126.11 -94.89,157 -1.19,22 28.17,140.09 47.52,217.92 21.51,86.41 41.73,167.77 47,210 6.76,54.1 4.17,136.12 -16.8,197.61 -17.2,50.41 -38.46,94.89 -54,127.32 -5.91,12.36 -11.15,23.3 -15.22,32.62 -15.75,36.06 -49.79,72.66 -53.63,76.73 -34.19,36.24 -96.24,38.53 -142.32,34.1 -63.08,-6.13 -112.3,-14.21 -159.94,-22 -42.47,-7 -86.43,-14.21 -141.47,-20.28 -40.22,-4.45 -155.43,-7.61 -190.56,-3 -263.1,34.34 -466,65.9 -701.85,102.53 a 365,365 0 0 1 -43.05,4.39 m -11,-80.1 c 6.45,0.25 19.22,-0.27 39.64,-3.42 236.73,-36.62 440.48,-68.17 705,-102.53 45.82,-6 170.06,-1.63 211.62,3 57.36,6.39 102.52,13.86 146.13,21.08 48.44,8 94.14,15.57 154.46,21.47 43.4,4.22 67.53,-2.74 72.59,-8.14 10.76,-11.41 30.71,-36.12 38.46,-53.92 4.38,-10 10,-21.81 16.32,-35.13 15.49,-32.44 34.76,-72.85 50.44,-119 14.19,-41.76 19.7,-110.29 13,-163 -4.77,-37.58 -25.5,-120.47 -45.64,-200.88 -37.2,-148.63 -53.22,-217.13 -49.7,-246.65 5.68,-47.71 53,-116.48 109.67,-195 6.18,-8.56 11.88,-16.46 16.78,-23.38 25.52,-38 89.9,-34.72 127.76,-20.13 6.79,2.63 13.77,5.57 20.85,8.56 17.28,7.31 36.85,15.59 49.2,15.86 149,3.12 322.12,-1.88 504.71,-7.17 162.81,-4.7 330.56,-9.56 489.55,-8.74 12.57,0.06 52.76,4.34 62.95,54.42 17.59,-7.39 35.77,-15 54.37,-22.82 92.86,-38.93 198,-83 286.11,-123.89 94.78,-44 159.84,-92.83 228.41,-152.67 76.25,-66.55 167.1,-157.85 247.35,-238.51 59.06,-59.18 109.97,-110.37 147.55,-144.31 53.82,-48.64 159.32,-94.61 261.31,-139 32.3,-14.06 62.8,-27.36 90.63,-40.27 1.07,-0.53 26.7,-12.55 23.58,-22.18 -25.59,-78.82 -51.82,-140.24 -80.14,-187.56 -7.65,-5.18 -29.53,-9.85 -37.72,-8 -107.73,35.41 -213.83,79.77 -316.55,122.72 -99,41.39 -201.38,84.21 -307.55,120.11 -33.14,11.18 -89.06,20.08 -130.06,20.71 -112,0.58 -207.77,1.71 -302.26,2.82 -120.39,1.41 -234.39,2.77 -377.13,3 h -0.87 c -24.67,-0.48 -100.63,-16 -233.1,-43.54 -94.91,-19.72 -202.76,-42.13 -282.62,-55.93 -56.9,-9.86 -194,-16.28 -256.22,-9.26 l -117.79,13.2 c -162,18.13 -251.47,28.14 -352.42,42.39 -29.71,4.18 -198.22,43.6 -231.65,57.31 -7.87,8.75 -15.65,21.41 -14.82,36.72 2.08,39 -19.61,97 -72.12,132.25 -30.95,20.78 -74.26,42.88 -116.15,64.24 -36.79,18.78 -74.84,38.19 -100,54.6 -15.64,10.17 -23.74,27.86 -35.21,55.77 l -30.44,74 c -106.19,257.71 -215.28,522.53 -284.47,784.03 -3.62,13.72 11.27,52.35 17.63,68.83 l 1.89,4.91 c 14.07,36.66 46.94,122.31 -14,176.46 -53.73,45.77 -106.88,92.67 -158.28,138.07 -78.05,68.91 -158.73,140.15 -242.72,208.6 -5.13,4.53 -13.37,27.23 -14.47,51.66 1,2.07 4.56,7.57 16.18,18.21" id="path1" />
</svg>