<svg viewBox="0 0 4493.8583 4493.8583" version="1.1" id="svg21" stroke="currentColor" fill="currentColor">
  <title id="title1">Jeddah Corniche F1 CRAFTY LITTLE THINGS SHEFFIELD</title>
  <path d="m 496.26302,3345.5282 a 185.75,185.75 0 0 1 -27.9,-1.26 77,77 0 0 1 -25.23,-8 175.68,175.68 0 0 1 -20.43,-11.74 140.16,140.16 0 0 1 -35.9,-35.22 133.49,133.49 0 0 1 -12.53,-22.3 134.93,134.93 0 0 1 -9.67,-29.95 176.28,176.28 0 0 1 -2.93,-30.12 88.27,88.27 0 0 1 1.88,-21.75 131.19,131.19 0 0 1 6.14,-20.44 119.22,119.22 0 0 1 9.86,-19.33 168,168 0 0 1 10.88,-15.41 170.94,170.94 0 0 1 11.5,-13.32 133,133 0 0 1 11.33,-10.29 c 5.18,-4.21 8.57,-6.21 35.7,-19.66 14.63,-7.26 37,-18.23 65.54,-32.2 l 165.53,-81.34 c 37.82,-18.61 73.63,-36.24 99.35,-48.84 46.72,-22.9 60.54999,-29.43 73.86999,-35.44 13.32,-6.01 26.23,-11.48 38.91,-16.9 13,-5.55 25.29,-10.82 37.72,-15.87 12.85,-5.17 25.77,-10.08 37.52,-14.28 11.93,-4.24 22.7,-7.73 33.11999,-10.87 11.59,-3.46 21.64,-6.17 30.76,-8.22 9.64,-2.21 18.6,-3.78 25.74,-5 a 207.78,207.78 0 0 1 25.2,-2.8 c 10.49,-0.63 26.49,-1.13 42.06,-1.46 l 12.75,-0.22 c 10.15,-0.17 19.78,-0.32 28.16,-0.69 a 250.7,250.7 0 0 0 27.49,-2.59 c 7.65,-1.17 16.14,-2.83 23.93,-4.69 6.87,-1.62 12.12,-3.14 17,-4.65 4.88,-1.51 9.17,-2.91 14,-4.5 l 1.61,-0.53 c 6,-2 12.68,-4.07 19,-5.92 a 190.31,190.31 0 0 1 20,-4.94 104.19,104.19 0 0 1 19.72,-1.51 137.34,137.34 0 0 1 18.54,1.36 104.55,104.55 0 0 1 18.13,4.35 128.81,128.81 0 0 1 17,7 166.44,166.44 0 0 1 16.35,9.51 162.33,162.33 0 0 1 13.83,10.13 c 4.45,3.56 9.25,7.76 14.11,12.52 4.56,4.47 9.14,9.41 13.76,14.58 l 12.16,13.54 a 108.42,108.42 0 0 0 9.63,9.67 89.44,89.44 0 0 0 10.15,7.2 87.38,87.38 0 0 0 9.06,4.86 c 2.82,1.28 5.69,2.45 8.21,3.31 a 12.91,12.91 0 0 0 3.5,0.8 c 3.69,0.41 8.48,0.53 13.72,0.62 5.8,0.08 12,0 17.23,-0.22 a 39.49,39.49 0 0 0 8.65,-1.16 c 2.95,-0.8 7.56,-2.58 21.43,-8.28 15.1,-6.21 39.93,-16.53 56.45,-23.51 16.06,-6.8 24,-10.33 31.68,-13.86 5.94,-2.77 13.51,-6.36 19.32,-9.66 a 57.08,57.08 0 0 0 10,-6.81 51,51 0 0 0 6.13,-6.9 31.39,31.39 0 0 0 2.58,-3.59 28.14,28.14 0 0 0 1.2,-4.07 c 0.72,-3.09 1.38,-6.69 2,-11.28 0.42,-3.24 0.84,-7 1.27,-10.84 l 1,-8.94 c 0.91,-7.83 2,-15.5 3.33,-22.59 a 138.54,138.54 0 0 1 6.92,-24.48 170,170 0 0 1 12.37,-25.19 159.83,159.83 0 0 1 16.54,-22.82 177,177 0 0 1 20,-19.3 c 4.61,-3.85 9.67,-7.8 14.64,-11.67 l 12.27,-9.7 c 4.19,-3.36 8.15,-6.54 12,-9.45 a 207.11,207.11 0 0 1 19.6,-13.18 c 6.12,-3.6 12.84,-7.1 19.94,-10.38 a 178,178 0 0 1 21.1,-8.26 165.68,165.68 0 0 1 23.85,-5.77 139.23,139.23 0 0 1 25.24,-1.76 205.42,205.42 0 0 1 24.93,2.15 c 7,1 14.21,2.42 22.6,4.37 5,1.21 10.08,2.5 15.09,3.79 l 5.4,1.38 a 148.53,148.53 0 0 0 15.65,3.38 113,113 0 0 0 16.17,0.9 149.7,149.7 0 0 0 20.19,-1.17 113.1,113.1 0 0 0 18.78,-4.38 102.38,102.38 0 0 0 15.79,-6.48 125.21,125.21 0 0 0 14,-8.6 c 5.13,-3.58 9.91,-7.25 14.17,-10.88 4.26,-3.63 8.52,-7.65 12.61,-11.87 3.68,-3.8 6.9,-7.42 9.18,-10.3 a 73,73 0 0 0 5.08,-7.52 c 2.23,-3.61 5.38,-8.66 7.85,-13.45 a 94.81,94.81 0 0 0 4.94,-11.48 46.55,46.55 0 0 0 2.42,-8.2 102.65,102.65 0 0 0 1.46,-14.16 c 0.3,-6.43 0.23,-13.77 0.06,-20.67 -0.17,-6.9 -0.55,-13.54 -1.13,-20 -0.32,-3.71 -0.7,-7.31 -1,-10.51 -0.3,-3.2 -0.66,-6 -0.84,-8.29 -0.46,-5.35 -1.31,-15.3 3.4,-26.25 a 57,57 0 0 1 12,-17.41 91.33,91.33 0 0 1 10.58,-9.17 92.31,92.31 0 0 1 13.3,-8.65 c 2.47,-1.3 5.3,-2.67 8.69,-4.27 2.37,-1.12 5.07,-2.4 8.17,-3.93 6.72,-3.36 15.19,-7.91 23.91,-12.71 8.72,-4.8 17.62,-9.82 26.42,-15.28 6.57,-4.06 13.11,-8.37 19.68,-12.7 l 7.52,-4.91 c 9.42,-6.18 19.06,-12.26 28.47,-18.19 9.94,-6.28 18.68,-11.79 27.88,-17.76 9.49,-6.14 19.51,-12.78 30.28,-19.93 l 1.24,-0.84 c 10.57,-7 21.83,-14.51 33.38,-22.08 l 8.45,-5.52 c 9.09,-5.94 18.38,-12 27.94,-18.52 6,-4.15 12.23,-8.5 18.39,-12.8 6.74,-4.75 13.43,-9.44 19.85,-13.81 12.47,-8.49 24.27,-16 36.1,-23.1 11.51,-6.88 22.85,-13.16 33.66,-18.67 10.34,-5.29 20.88,-10.17 30.49,-14.18 8.23,-3.42 15.44,-6.06 23.36,-8.54 a 161.77,161.77 0 0 1 28.07,-6.25 c 13.85,-1.88 31.28,-3 40.47,-3.43 6.92,-0.38 13.61,-0.63 19.79,-0.85 5.47,-0.21 10.48,-0.39 14.86,-0.64 8.05,-0.44 13.4,-1.07 20.46,-2.09 7.06,-1.02 15.12,-2.27 22.82,-3.9 a 135,135 0 0 0 18.28,-5 39.46,39.46 0 0 0 8.41,-4.07 5.83,5.83 0 0 0 1.18,-1.53 c -0.89,-0.92 -2,-2 -3.38,-3.29 -2,-1.83 -4.22,-3.76 -6.38,-5.64 -3.12,-2.72 -6.18,-5.38 -8.76,-7.82 -7.11,-6.71 -12.14,-12.92 -15.95,-19.64 a 63.57,63.57 0 0 1 -8,-24.84 62.94,62.94 0 0 1 2.76,-26.67 c 2.61,-7.95 6.81,-15.57 13.22,-23.93 5.67,-7.36 8.23,-10.71 117.07,-112.32 99.71,-93.09 303.46,-282.48 426.36,-395.62 119.12,-109.79 155.12,-141.09 186.44,-166.28 30,-24.08 55.17,-42.19 130,-96.0001 l 10.94,-7.87 c 62.87,-45.24 158.37,-114 230.9,-166.3 l 59.07,-42.56 c 68.31,-49.21998 68.42,-49.31998 74.16,-54.14998 7.7,-6.48 22,-18.47 33.75,-26.65 14.2,-9.79 26.28,-15 40.42,-17.4 a 114.79,114.79 0 0 1 38,0 93.23,93.23 0 0 1 33.58,12.87 106.2,106.2 0 0 1 25.5,22.28 141.27,141.27 0 0 1 20.36,31.44 92.52,92.52 0 0 1 8.41,36.44998 c 0.31,10.7 -1,21.08 -3.2,34.34 -2,12 -5.12,28.25 -8.25,44.73 l -10.86,56.53 c -4,20.36 -8.57,43.91 -13.18,67.1 -4.7,23.5001 -9.43,46.6401 -13.87,66.0001 -4.31,18.57 -8.58,34.61 -14.29,53.65 -5.95,19.76 -12.23,38.63 -18.67,56.14 -6.75,18.35 -14.43,37.26 -22.25,54.67 -7,15.7 -13.74,29.28 -23.21,46.85 -9.89,18.38 -20.86,37.56 -30.89,54 -10.78,17.74 -22,34.82 -34.28,52.2 -12.17,17.2 -25.46,34.74 -37.41,49.41 -10.85,13.31 -21.63,25.56 -34.95,39.68 -11.62,12.31 -23.07,23.87 -35,35.37 -12.89,12.4 -26.17,24.55 -39.46,36.12 -12.83,11.16 -27.12,23 -44.94,37.37 -16.22,13.06 -34.38,27.32 -52.23,41.21 -16.12,12.57 -34.91,27.07 -51.92,39.28 -16.69,11.93 -31.84,21.83 -46.38,30.28 -13.3,7.72 -26.92,14.74 -42.84,22.1 -14.59,6.71 -28.52,12.55 -42.66,17.83 -15.62,5.88 -30.68,10.8 -46,15 a 440.31,440.31 0 0 1 -49.53,10.84 427.23,427.23 0 0 1 -48.33,4.31 c -21.41,0.89 -40.34,1 -59.59,0.38 -21.83,-0.74 -45.11,-2.53 -71.08,-4.62 -23.86,-1.91 -47.36,-3.83 -72,-6.17 l -27.44,-2.67 c -15.07,-1.49 -29.49,-2.91 -41.31,-3.89 -16.46,-1.38 -28.24,-1.9 -39.4,-1.75 -13,0.17 -19.82,1.13 -22.7,1.68 -3.76,0.73 -6.36,1.84 -12.38,4.46 -6.02,2.62 -13.37,5.78 -19.09,8.83 -4.14,2.21 -7.16,4.27 -20.16,13.81 l -53.3,39.33 c -10.92,8.06 -17,12.45 -21.91,16.58 a 83.06,83.06 0 0 0 -11,10.79 123.42,123.42 0 0 0 -10.46,14.37 89.66,89.66 0 0 0 -7.37,14.93 178.36,178.36 0 0 0 -5.64,18.17 c -1.49,5.74 -2.64,10.74 -3.55,15.79 -0.51,2.77 -0.93,5.6 -1.36,8.35 -0.46,3 -0.92,5.94 -1.4,8.7 a 123.25,123.25 0 0 1 -5.29,20.63 136.1,136.1 0 0 1 -10.39,22.44 208.31,208.31 0 0 1 -13.88,21 113.83,113.83 0 0 1 -15.76,17.62 93.15,93.15 0 0 1 -17.1,11.56 115.76,115.76 0 0 1 -18.89,8.75 c -7.7,2.67 -15.12,3.9 -23.83,5 l -7.14,0.81 c -5.41,0.59 -11.88,1.29 -19.82,2.41 -8.78,1.25 -23.15,3.53 -41.87,7.4 -16.22,3.34 -34.32,7.61 -51,12 -16.1,4.29 -30.89,8.74 -45.23,13.64 -14.78,5 -28.08,10.23 -41.84,16.25 -14.77,6.48 -30.18,14 -45.8,22.32 -15.31,8.15 -31.41,17.41 -45.38,26.09 -12.54,7.8 -23.46,15.21 -34.45,23.29 -8.85,6.55 -17.95,13.69 -27.82,21.81 -9,7.37 -15.32,12.92 -21.95,19.22 -8.2,7.86 -16.17,16.19 -23.59,24.7 -7.16,8.22 -15.09,18.06 -24.26,30 -8.28,10.84 -14,18.68 -18.88,26.13 -5.75,8.7 -11.12,17.73 -16.52,26.91 l -1.09,1.84 c -5.63,9.57 -11.41,19.35 -18.5,30.09 -8,12.13 -17.21,24.74 -25.89,35.53 a 367.38,367.38 0 0 1 -26.63,29.7 c -8.75,8.78 -18.32,17.77 -29.31,27.49 -11.61,10.3 -22.93,19.72 -32.69,27.22 -12,9.17 -22.59,16.23 -31.37,21.91 -13.22,8.56 -24.42,15.29 -35.24,21.2 a 379.23,379.23 0 0 1 -40.54,19.25 c -10.18,4.11 -20.58,7.7 -31,11.28 l -9.07,3.13 c -12.39,4.34 -24.65,8.9 -35.42,13.21 -10.62,4.23 -19.73,8.18 -27.86,11.89 -8.13,3.71 -15.32,7.18 -21.78,10.41 a 161.65,161.65 0 0 0 -17.69,9.8 c -6.19,4 -14.87,10.08 -24.4,17.21 -7.77,5.81 -14.09,10.75 -21.61,17.49 -8,7.13 -17,16.07 -26.88,25.83 -10,9.9 -20.75,20.66 -31.45,32.13 -10.7,11.47 -21.48,23.78 -31,34.67 l -5.38,6.16 c -7.66,8.8 -14.75,16.91 -22.4,25.46 -9.51,10.65 -19.81,21.92 -28.53,31.15 -9.32,9.86 -16.72,17.26 -24,24 -7.94,7.38 -15.58,13.84 -24.11,20.4 -8.36,6.42 -18,13.21 -27.86,19.64 -9.59,6.26 -19.23,12 -29.48,17.71 -9.45,5.21 -19.83,10.5 -31.71,16.22 -12.64,6.06 -24.08,11.17 -35,15.66 -11.61,4.77 -24.15,9.46 -36.26,13.55 -12.39,4.18 -23,7.34 -32.61,9.65 a 214.29,214.29 0 0 1 -28.73,5.06 211.4,211.4 0 0 1 -24.72,1 c -7.73,-0.1 -16,-0.4 -22.57,-0.84 a 96.33,96.33 0 0 1 -40.66,-10.52 c -5.79,-2.73 -12.49,-6.1 -18.83,-9.74 a 167.23,167.23 0 0 1 -19.64,-13 155.6,155.6 0 0 1 -16.74,-15.19 c -4.66,-4.89 -8.84,-9.78 -13.22,-15.22 l -4.81,-6 c -2.18,-2.75 -4.46,-5.61 -6.86,-8.5 a 95,95 0 0 0 -9.66,-10.44 66.4,66.4 0 0 0 -9.67,-6.76 21.47,21.47 0 0 0 -2.25,-1.27 50.42,50.42 0 0 0 -8,-1.2 22.18,22.18 0 0 0 -6.28,0.39 108.86,108.86 0 0 0 -14.85,4.23 c -7.65,2.63 -17,6.29 -24.75,9.38 l -3,1.22 c -7.42,3 -13.65,5.5 -20.16,7.68 a 201.94,201.94 0 0 1 -27.2,6.92 c -9.26,1.73 -20.2,3.3 -30.85,4.44 -9.95,1 -18.7,1.64 -27.26,2 -10.22,0.44 -18.34,0.52 -25.6,0.23 -8,-0.32 -15.17,-1.12 -23.5,-2.09 -7.64,-0.92 -16.2,-2 -23.85,-3 l -5,-0.66 c -5.16,-0.69 -9.87,-1.34 -14.15,-1.78 a 151.28,151.28 0 0 0 -16.54999,-0.68 c -8.34,0 -19.89,0.22 -28.64,0.47 -9.1,0.25 -13.87,0.46 -20,1.17 -6.78,0.78 -15.36,2.17 -24.78,4 -10.73,2.06 -20.53,4.33 -30,6.91 a 274.17,274.17 0 0 0 -31.9,10.73 c -10.59,4.3 -23,10.17 -34.86999,16.48 a 314.71,314.71 0 0 0 -28.37,17.02 c -7.35,5 -14.51,10.46 -22.55,17.17 -7.21,6 -14,12.12 -20.09,18.08 -7.17,7 -12.61,13 -15.94,16.74 -3.14,3.58 -5.77,6.82 -8.47,10.12 l -7,8.43 c -3.14,3.77 -6.47,7.73 -9.46,11.76 -3.89,5.17 -7.2,10.45 -9.93,14.94 -2.46,4 -4.78,8 -7.23,12.21 l -3.11,5.28 c -4,6.8 -8.46,14.4 -13.57,22.23 -5.11,7.83 -11.05,16.15 -16.68,23.38 -4.91,6.39 -10,12.38 -15.83,18.81 a 184.7,184.7 0 0 1 -17.94,17.37 226.12,226.12 0 0 1 -23.43,17.12 195.09,195.09 0 0 1 -25.34,13.75 179.8,179.8 0 0 1 -25.05,9 211.3,211.3 0 0 1 -26,5.63 205.83,205.83 0 0 1 -27.22,2 m 624.99998,-460.59 c -12.23,0.28 -24.14,0.68 -32.44,1.17 a 141.74,141.74 0 0 0 -18.32,2 c -6,1 -13.65,2.31 -21.93,4.2 -7.71,1.74 -16.36,4.05 -26.51,7.08 -9.42,2.82 -19.2,6 -29.99999,9.83 -10.8,3.83 -23,8.48 -35,13.29 -12,4.81 -24,10 -36.14,15.16 -12.82,5.47 -25.4,10.83 -38.29,16.6 -12.63,5.69 -26.05,12 -71.99999,34.5 -25.71,12.57 -61.55,30.17 -99.35,48.76 l -165.84,81.32 c -28.41,13.9 -50.76,24.82 -65.36,32.06 -5.37,2.65 -21.75,10.76 -24.61,12.55 -0.91,0.8 -2.91,2.56 -5,4.65 a 98.93,98.93 0 0 0 -6.84,8 103.38,103.38 0 0 0 -6.74,9.49 52.44,52.44 0 0 0 -4.38,8.44 63.58,63.58 0 0 0 -2.71,9.07 c -0.29,1.35 -0.37,1.81 -0.31,5.37 a 102.11,102.11 0 0 0 1.55,17.1 62.5,62.5 0 0 0 4.47,13.51 59.26,59.26 0 0 0 5.52,9.92 63.72,63.72 0 0 0 7.35,8.62 66.55,66.55 0 0 0 9.53,7.8 108.2,108.2 0 0 0 12.1,6.9 c 2.7,1.33 2.94,1.37 4.5,1.59 a 134.23,134.23 0 0 0 17.76,0.61 130,130 0 0 0 36.86,-5.33 115.88,115.88 0 0 0 16.33,-5.81 132.32,132.32 0 0 0 17,-9.27 165.94,165.94 0 0 0 16.64,-12.13 120.15,120.15 0 0 0 11.78,-11.48 c 3.89,-4.27 8,-9 12.3,-14.61 4.6,-5.94 9.41,-12.67 13.58,-19 4.44,-6.8 8.33,-13.41 11.8,-19.37 l 3.06,-5.23 c 2.68,-4.58 5.2,-8.89 7.86,-13.25 3.35,-5.52 7.93,-12.81 13.49,-20.22 3.63,-4.9 7.74,-9.85 11.62,-14.51 l 6.56,-7.93 c 3.12,-3.83 6.2,-7.59 9.9,-11.82 5.9,-6.73 12.63,-13.79 19.46,-20.46 7.26,-7.1 15.27,-14.32 23.77,-21.43 a 340,340 0 0 1 27.7,-21.08 376.61,376.61 0 0 1 34.23,-20.48 c 9.76,-5.2 24.73,-12.76 40.82,-19.32 a 340.38,340.38 0 0 1 39.21999,-13.29 c 11,-3 22.36,-5.66 34.66,-8.06 11.16,-2.18 21.17,-3.79 29.72,-4.8 9.31,-1.07 16.55,-1.35 25.77,-1.6 9.22,-0.25 21.59,-0.56 30.49,-0.54 a 211.9,211.9 0 0 1 23.34999,1 c 4.91,0.49 10.32,1.21 16.24,2 l 4.85,0.64 c 7.43,1 15.69,2 23,2.87 6.4,0.75 12,1.4 18.21,1.65 6.21,0.25 13,0.06 20,-0.24 7.26,-0.33 14.7,-0.83 23.17,-1.74 8.82,-0.94 18.15,-2.3 25.64,-3.7 a 138.46,138.46 0 0 0 18.46,-4.66 c 5.23,-1.76 10.31,-3.85 16.4,-6.31 l 3.16,-1.29 c 8.73,-3.49 19.23,-7.58 27.78,-10.53 a 169.18,169.18 0 0 1 24.38,-6.75 88.91,88.91 0 0 1 22.69,-1.34 116.78,116.78 0 0 1 21.4,3.38 76.42,76.42 0 0 1 20.39,8.93 140.61,140.61 0 0 1 20.36,14.5 167.58,167.58 0 0 1 18.24,19.2 c 2.72,3.31 5.24,6.47 7.67,9.5 l 4.46,5.56 c 3.1,3.82 6,7.24 9.14,10.53 a 76.78,76.78 0 0 0 8.5,7.73 97.5,97.5 0 0 0 11.09,7.29 c 4.6,2.63 9.5,5.07 13.67,7 a 52.32,52.32 0 0 0 7,2.91 46.92,46.92 0 0 0 8.32,1 c 5.52,0.36 12.42,0.6 18.85,0.67 a 136.49,136.49 0 0 0 17.06,-0.64 147.91,147.91 0 0 0 19.83,-3.54 c 7.65,-1.86 16.5,-4.49 27,-8 10.77,-3.67 21.94,-7.84 32.26,-12.1 9.74,-4 20,-8.63 31.51,-14.14 10,-4.8 19.42,-9.59 28.36,-14.53 8.94,-4.94 17.07,-9.82 25.27,-15.19 8.47,-5.54 16.66,-11.31 23.68,-16.71 6.84,-5.26 13,-10.48 19.38,-16.4 6.14,-5.7 12.57,-12.17 20.86,-20.94 8.29,-8.77 18.16,-19.59 27.24,-29.76 7.43,-8.32 14.35,-16.24 21.81,-24.82 l 5.4,-6.19 c 9.94,-11.39 21.15,-24.22 32.4,-36.28 11.25,-12.06 22.67,-23.51 33.22,-34 9.79,-9.7 20.13,-19.88 29.25,-28.09 9.35,-8.38 17.23,-14.55 26.19,-21.26 7.59,-5.68 18.67,-13.76 28.28,-19.93 a 230.47,230.47 0 0 1 24,-13.37 c 7,-3.51 14.83,-7.29 23.74,-11.37 8.91,-4.08 19.08,-8.49 30.8,-13.17 5,-2 10.21,-4 15.64,-6.07 a 155.72,155.72 0 0 1 -16.8,-1.47 205.23,205.23 0 0 1 -23.27,-4.9 l -5.58,-1.43 c -4.59,-1.19 -9.21,-2.38 -13.72,-3.46 -5.44,-1.27 -10.81,-2.4 -16.56,-3.23 a 127.19,127.19 0 0 0 -16.09,-1.44 69.36,69.36 0 0 0 -13,0.85 100.38,100.38 0 0 0 -14.11,3.45 112.72,112.72 0 0 0 -13.56,5.33 c -4.64,2.15 -9.44,4.59 -14,7.28 a 141,141 0 0 0 -13.25,8.93 c -3.35,2.54 -6.83,5.33 -10.51,8.29 l -13,10.26 c -4.36,3.41 -8.81,6.87 -12.86,10.24 a 112,112 0 0 0 -12.64,12.09 91.24,91.24 0 0 0 -9.47,13.08 98.6,98.6 0 0 0 -7.23,14.63 68.18,68.18 0 0 0 -3.45,12.42 c -1,5.36 -1.81,11.25 -2.52,17.36 l -1,8.45 c -0.49,4.44 -1,8.71 -1.47,12.52 a 184.46,184.46 0 0 1 -3.33,18.47 88.62,88.62 0 0 1 -6.27,18.3 85.13,85.13 0 0 1 -9.92,15.44 114.61,114.61 0 0 1 -14.27,15.72 120.82,120.82 0 0 1 -21.66,15.26 c -7.86,4.45 -16.66,8.64 -24.23,12.13 -8.16,3.78 -16.64,7.54 -33.77,14.78 -16.71,7.05 -41.84,17.47 -57.11,23.72 -15.27,6.25 -22.3,9.06 -29.5,11 a 105.59,105.59 0 0 1 -22.37,3.32 c -6.61,0.34 -14.63,0.41 -22,0.27 -8.83,-0.13 -15.12,-0.46 -20.34,-1.06 a 82,82 0 0 1 -18.32,-4.14 c -4.73,-1.63 -9.91,-3.7 -15.1,-6.1 a 159.17,159.17 0 0 1 -16.65,-8.95 165.29,165.29 0 0 1 -19.23,-13.79 180.74,180.74 0 0 1 -16.53,-16.42 c -2.64,-2.89 -5.31,-5.88 -8,-8.86 l -4.61,-5.15 c -3.57,-4 -7,-7.79 -10.45,-11.15 -3,-2.9 -6,-5.5 -8.72,-7.75 -2.72,-2.25 -5.15,-4 -8,-5.88 a 85.78,85.78 0 0 0 -8.85,-5.18 58.44,58.44 0 0 0 -7.52,-3.09 37.26,37.26 0 0 0 -6.51,-1.59 69.48,69.48 0 0 0 -9.1,-0.62 34.86,34.86 0 0 0 -7.62,0.52 117.11,117.11 0 0 0 -12.75,3.21 c -5.72,1.68 -11.8,3.63 -17.22,5.37 l -1.54,0.51 c -5.2,1.69 -9.91,3.22 -15,4.8 -6.06,1.87 -12.65,3.76 -21.2,5.79 -9.5,2.25 -19.92,4.28 -29.3,5.69 a 311.4,311.4 0 0 1 -34.6,3.26 c -8.9,0.39 -19.17,0.55 -30,0.71 l -12.51,0.2 -7,0.15 m 1046.5,-443.72 c 0.37,3.46 0.77,7.24 1.1,11.08 0.68,7.77 1.12,15.76 1.38,24.29 0.24,8.71 0.27,17.89 -0.08,26.1 a 174,174 0 0 1 -2.66,24.31 114.58,114.58 0 0 1 -5.45,19.29 168.28,168.28 0 0 1 -8.46,19.46 c -1.83,3.54 -3.94,7.26 -6,10.69 9.31,-8.27 17.38,-15.89 24.7,-23.25 a 304.83,304.83 0 0 0 21.88,-24.39 c 7.29,-9.07 15.36,-20.18 22.15,-30.42 6.36,-9.63 11.53,-18.45 16.61,-27.07 l 1.08,-1.84 c 6,-10.21 12,-20.24 18.38,-29.88 5.8,-8.8 12.26,-17.74 21.53,-29.9 10.06,-13.15 18.87,-24 26.94,-33.34 8.77,-10.06 18.16,-19.91 27.92,-29.26 2.12,-2 4.22,-4 6.33,-5.89 -3,2 -5.91,3.85 -8.78,5.72 -9.47,6.12 -18.42,11.76 -27.56,17.54 -10.17,6.39 -19.5,12.28 -28.67,18.26 l -7.34,4.78 c -7.09,4.64 -14.12,9.27 -21.22,13.65 -9.84,6.08 -19.76,11.69 -29.42,17 -9.66,5.31 -19,10.31 -26.43,14 -3.55,1.76 -6.68,3.24 -9.42,4.53 -2.28,1.09 -4.22,2 -5.86,2.86 a 26,26 0 0 0 -2.65,1.64 m 440.26,-249.91 c -7.17,0.55 -13.5,1.18 -18.32,1.82 a 93.42,93.42 0 0 0 -16.75,3.73 c -5.89,1.84 -11.11,3.75 -17.4,6.37 -7.94,3.27 -17.06,7.52 -25.75,11.93 -9.45,4.82 -19.46,10.38 -29.73,16.49 -1.58,0.95 -3.19,1.91 -4.79,2.89 q 14.33,-7.08 28.21,-13.18 c 15.55,-6.84 30.52,-12.69 47.19,-18.4 12.09,-4.14 24.39,-8 37.34,-11.65 m 147.3,-158.19 c 1.45,1.31 3.07,2.7 4.7,4.13 2.73,2.37 5.5,4.78 8,7.08 a 127.39,127.39 0 0 1 15.64,16.88 65.35,65.35 0 0 1 10.73,20.38 56.79,56.79 0 0 1 2.58,19.64 c 0.3,-1.83 0.6,-3.69 1,-5.53 1.21,-6.74 2.71,-13.39 4.73,-21.14 a 243,243 0 0 1 8,-25.51 160.54,160.54 0 0 1 13,-26.32 189.4,189.4 0 0 1 16.59,-22.82 149.45,149.45 0 0 1 19.4,-19.14 c 5.65,-4.69 12.49,-9.79 25,-19 l 53.29,-39.38 c 13.37,-9.82 19.64,-14.35 28.46,-19.08 7.75,-4.14 16.8,-8.1 24.08,-11.27 7.59,-3.31 15.46,-6.74 27,-9 9.54,-1.86 21.19,-2.79 35.59,-3 13.56,-0.19 27.42,0.39 46.35,1.94 12.14,1 27,2.44 42.46,4 l 27.11,2.61 c 24.29,2.28 47.43,4.15 70.95,6 25,2 47.42,3.68 67.7,4.34 17.32,0.59 34.42,0.45 53.87,-0.41 a 349.64,349.64 0 0 0 40.24,-3.55 366.19,366.19 0 0 0 41.27,-9.1 c 13.22,-3.67 26.25,-7.94 39.86,-13.07 12.53,-4.7 24.9,-9.89 37.84,-15.86 13.82,-6.4 25.56,-12.46 36.89,-19.05 12.57,-7.31 25.89,-16 40.7,-26.65 16,-11.48 34.07,-25.44 49.64,-37.59 17.54,-13.65 35.33,-27.68 51.28,-40.52 17.09,-13.77 30.7,-25.09 42.82,-35.64 12.39,-10.8 24.78,-22.15 36.82,-33.74 11.11,-10.71 21.76,-21.48 32.58,-33 12.1,-12.84 21.84,-23.91 31.59,-35.87 11,-13.47 23.21,-29.67 34.49,-45.61 11.48,-16.25 21.53,-31.56 31.62,-48.14 9.4,-15.46 19.71,-33.5 29,-50.82 8.58,-16 14.64,-28.2 21,-42.24 7,-15.77 14.28,-33.59 20.39,-50.23 6,-16.2 11.8,-33.71 17.33,-52.06 5.24,-17.49 9.18,-32.22 13.1,-49.2 4.32,-18.71 8.9,-41.1101 13.44,-63.8701 4.6,-23.05 9.18,-46.46 13.11,-66.65 l 10.81,-56.23 c 3,-15.94 6,-31.6 8,-43.17 1.77,-10.64 2.39,-16.22 2.25,-20.57 a 19.38,19.38 0 0 0 -1.82,-8.37998 65.7,65.7 0 0 0 -9.21,-13.89 30,30 0 0 0 -7.4,-6.76 15.76,15.76 0 0 0 -6,-2.33 38.3,38.3 0 0 0 -12,0 c -1.84,0.3 -4.15,0.69 -11.12,5.51 -9,6.24 -22.16,17.26 -28.46,22.55998 -7.9,6.64 -7.9,6.64 -78.49,57.46 v 0 l -59.15,42.57 c -72.63,52.26 -168.29,121.08 -231.26,166.3401 l -10.94,7.86 c -73.82,53 -98.65,70.87 -127.22,93.79 -30.15,24.19 -65.27,54.81 -183.16,163.24 -123.07,113.09 -326.96,302.48 -426.74,395.48 -84.34,78.65 -105.31,98.85 -109.33,103.61 m 1125.17,-1002.3801 z" id="path15" />
</svg>