<svg viewBox="0 0 4493.8583 4493.8583" version="1.1" id="svg21" stroke="currentColor" fill="currentColor">
  <title id="title1">Lusail Qatar F1 CRAFTY LITTLE THINGS SHEFFIELD</title>
  <path id="path2406" class="cls-1" d="m 2131.796,3445.3673 c -410.14,1 -804.47,-8.75 -1193.67002,-9.86 -229.74,-0.66 -257,-254.89 -130,-323.76 142.66,-77.36 276.85002,-143 416.12002,-224.2 104.59,-61 112.84,-227.68 -16.14,-293.27 -136.47,-69.39 -220.80002,-114.66 -352.45002,-189.23 -32.12,-18.19 -74.51,-66.38 -87,-101.34 -106.38,-297.73 -194.38,-570.96 -295.09,-872.6 -30.7,-91.95 12.59,-176.68 114.81,-211.66 78.66,-26.92 113.62,-40 198.2,-67.26 75.8,-24.43 171.8,39.2 203.56,121.07 66.33002,171.19 113.54002,341.23 168.61002,510.3 12.56,38.58 65.57,86.78 97.75,86.09 25.48,-0.54 74.32,-23.44 78.92,-54.71 40.17,-272.85 79.33,-545.56 113.9,-817.89997 7,-55.49 64.74,-99.28 104.93,-116.59 37.54,-16.17 93.27,-8.36 129.14,9 35.87,17.36 70.78,55.06 86.09,95.06 21.76,56.85997 20.15,122.11997 43.05,179.36997 29.71,74.28 65.75,150.83 121.07,209.86 38,40.56 104.67,83.21 146.94,132.29 25.78,29.94 77.62,85.44 57.54,154.69 -23.74,81.85 -79.91,242.55 -115.69,412.54 -8.91,42.3 15.65,96.53 48.43,118.38 39,26 113.35,24.41 163.22,9.87 93.62,-27.31 189.87,-63.77 274.43,-119.28 72.09,-47.33 132,-106.67 190.12,-170.4 44.78,-49.1 84.65,-105.82 113,-166.81 82.85,-178.17 148.77,-361.15 222.42,-545.27 22,-55 59.88,-125 107.62,-153.35 29,-17.22 85.75,-42.9 118.38,-43 132.47,-0.63 206.62,-1.54 340.79,0.89 34.58,0.64 97.89,39.51 113.9,70 70.88,134.81 133,242.39 208.06,371.28 20.24,34.76 22.07,114.24 -9.87,151.57 -159.12,186 -276.47,331.9 -441.23,515.67 -47,52.4 -76.63,145.79 -39.46,202.68 191.62,293.34 349.84,567.61 568.58,865.44 73.44,100 -0.35,249.56 -122.86,250.21 -591.91,3.04 -1147.04,12.81 -1746.12,14.23 z" />
</svg>