<svg viewBox="0 0 4493.8583 4493.8583" version="1.1" id="svg21" stroke="currentColor" fill="currentColor">
  <title id="title1">Miami F1 CRAFTY LITTLE THINGS SHEFFIELD</title>
  <path d="m 2452.6249,3124.833 c -127.1931,10.1819 -220.4308,-12.6308 -276.7675,-26.3792 -8.1867,-2.0132 -15.6266,-3.8454 -22.4098,-5.369 -44.6974,-10.0854 -135.2701,-44.3474 -208.0542,-71.8171 -20.3992,-7.6968 -38.9587,-14.7182 -53.9247,-20.2115 -50.7999,-18.6458 -134.1857,-39.1975 -244.9645,-29.3665 -13.9554,1.1172 -95.0004,9.18 -197.6627,19.3946 -208.0144,20.6645 -522.59775,51.8665 -594.40568,56.8925 -88.39566,6.3439 -246.76951,-21.8384 -303.5151,-39.3161 -49.08396,-15.1316 -85.87603,-23.4623 -181.96887,-12.6399 -31.16027,3.4976 -43.24704,7.6553 -56.02879,12.0292 -19.44035,6.6625 -39.46123,13.5922 -102.27714,17.4068 -73.23936,4.9399 -146.502498,-89.2944 -152.725779,-167.0358 -7.719455,-96.4315 22.060399,-139.6055 53.584949,-185.2967 94.60073,-137.9888 275.12316,-153.9446 310.56384,-155.7283 108.8591,-6.116 176.57879,49.6982 194.752,66.933 65.78302,62.45 100.93499,83.5021 118.82377,90.1659 35.15156,13.0266 84.46292,14.9579 131.91082,5.1405 34.21393,-7.0828 74.59186,-43.8119 101.30726,-68.1212 l 7.90279,-7.1735 c 36.85413,-33.3772 59.07893,-53.5048 134.06613,-77.4649 70.5291,-23.1317 167.4542,-16.4145 235.5017,16.5507 55.4873,27.1991 628.7269,307.0593 628.7269,307.0593 0.8358,0.4147 103.5022,49.0273 199.7042,44.2054 17.1029,-0.8976 32.7258,-1.4861 47.3088,-2.0315 81.2762,-3.0452 126.0251,-4.7214 234.8521,-53.9724 126.024,-57.3691 156.1689,-129.4444 163.301,-157.7738 8.3437,-33.623 5.7544,-80.0043 2.4786,-138.7201 l -1.066,-19.457 c -4.4216,-82.1792 14.6706,-113.9942 33.1149,-144.754 17.1565,-29.3025 51.0952,-53.859 81.0316,-75.5269 7.1689,-5.1886 13.9131,-10.0422 19.6354,-14.503 22.2109,-16.9163 36.5265,-45.9914 36.3668,-57.8865 -1.7899,-7.8222 -26.0387,-37.0404 -85.893,-66.6587 -64.9513,-31.7584 -465.8384,-234.1346 -469.8636,-236.1699 l -0.08,0.01 c -4.4953,-2.2685 -449.7515,-228.2997 -517.5996,-261.5317 -74.2399,-36.3819 -143.4586,-57.536 -205.7399,-62.8331 -46.0718,-3.6955 -177.6922,3.1893 -245.439,24.9847 -70.0204,22.469 -144.0346,62.8437 -214.0984,116.7264 -39.8998,30.6716 -89.91113,63.6073 -179.64275,66.2961 -83.54057,2.454 -112.67275,-6.3093 -184.11394,-42.4438 -85.9552,-43.4998 -191.88761,-107.22 -208.52494,-163.7929 -6.97773,-23.8793 -1.91933,-52.1732 13.21441,-73.9101 14.06404,-20.1866 42.95051,-44.5694 100.54883,-45.6389 241.73823,-4.795 2237.58689,-83.8175 2377.60909,-92.5185 70.7051,-3.764 385.781,-16.9076 690.5088,-29.6142 314.8833,-13.1684 640.48,-26.7229 664.4034,-28.638 30.1436,-2.413 49.0682,10.2974 59.6171,21.3911 17.0101,17.8696 25.3278,45.7046 22.7811,76.4258 -2.8123,30.1606 -19.8294,141.5336 -30.0267,183.3306 -4.6343,18.9302 -1.3235,21.0628 11.9519,26.24 15.5845,6.0758 37.3527,16.9635 46.238,41.3623 9.6804,26.5622 -3.0995,51.2608 -7.2841,59.3906 -2.0879,4.1198 -7.3357,16.6384 -12.8518,29.941 -10.1595,24.3483 -24.0514,57.7132 -37.1813,83.8042 -29.1787,57.9531 -90.1145,80.1162 -114.9476,86.9596 -21.4276,5.8986 -66.2889,9.6804 -127.3787,14.3801 -21.0076,1.6215 -40.8788,3.1521 -51.9031,4.4158 -38.61,4.425 -64.6691,45.7061 -60.641,96.0251 2.3285,29.0869 17.333,53.6078 45.9582,74.9617 28.821,21.6693 44.6603,27.795 68.6254,37.0522 l 5.0743,1.9814 c 1.0351,0.3987 104.3053,41.3888 106.017,110.8939 1.2689,50.9412 -29.6087,76.015 -62.2758,102.5463 l -2.7013,2.2227 c -54.6184,44.5604 -313.4174,204.1704 -440.9691,274.6633 -91.2659,50.4435 -349.0092,168.4768 -537.2107,254.6794 -77.2634,35.3781 -143.9966,65.9506 -185.0811,85.3308 -174.6993,82.4331 -496.7913,115.8312 -559.594,121.6913 -3.5785,0.2865 -7.1316,0.6411 -10.6603,0.9236 M 1644.945,2897.949 c 120.4946,-9.6457 213.0711,12.929 269.7627,33.7417 15.1112,5.5519 33.8864,12.6363 54.5037,20.4259 67.0451,25.3309 158.8671,60.0345 198.8542,69.0525 7.1516,1.6144 15.009,3.5235 23.6148,5.6336 57.198,13.9804 143.5532,35.1571 264.8838,23.7992 167.9757,-15.6637 409.3425,-55.3002 536.77,-115.4401 41.4529,-19.5401 108.3409,-50.1852 185.8163,-85.6706 187.196,-85.7308 443.5538,-203.1516 532.5657,-252.3011 133.5368,-73.801 383.0664,-228.897 430.6345,-267.6664 l 2.771,-2.2282 c 31.2824,-25.4072 35.5696,-30.626 35.2652,-42.951 -2.6066,-9.2515 -32.0792,-32.544 -59.6437,-43.2787 l -4.969,-1.9196 c -26.1936,-10.1522 -48.8043,-18.9059 -85.4143,-46.3922 -45.8832,-34.2981 -71.3006,-77.7384 -75.4077,-129.0443 -7.1529,-89.3541 46.8882,-166.1914 122.9543,-174.919 12.2572,-1.4025 31.8692,-2.9123 54.4809,-4.6722 38.8844,-3.0024 97.7122,-7.511 114.5135,-12.1766 12.3683,-3.3978 54.019,-17.085 70.6972,-50.2315 11.9362,-23.7081 25.2397,-55.6515 34.9698,-78.9723 5.9387,-14.2894 10.4677,-25.1354 13.8342,-32.2066 -48.2664,-19.0794 -68.501,-60.4366 -55.5503,-113.5795 9.3621,-38.3192 25.6204,-144.6356 28.1577,-171.9652 0.7264,-8.5954 -0.9837,-15.1699 -2.2103,-17.2085 -0.2942,0.084 -1.5785,-0.044 -3.7815,0.1322 -25.2193,2.0188 -336.9463,15.0148 -667.0107,28.7764 -304.5268,12.7106 -619.4133,25.8391 -689.4198,29.5572 -139.9166,8.6423 -2138.26847,87.7247 -2380.24434,92.5588 -21.22776,0.3751 -37.54814,5.7847 -44.39381,14.7595 -4.13651,5.3472 -3.39065,10.153 -3.37749,10.192 5.3533,15.7431 62.13989,63.183 171.36933,118.4632 61.68452,31.1773 79.91777,37.1313 151.03924,35.0595 69.39897,-2.0342 105.69185,-25.7559 139.79797,-51.981 76.3678,-58.7211 157.6211,-102.9057 235.0214,-127.8013 74.411,-24.0143 212.9436,-32.7766 271.929,-28.0483 70.958,6.0371 148.4257,29.4803 230.4245,69.6753 67.9981,33.3504 510.6063,258.0084 518.3864,261.9602 4.0552,2.0329 404.5252,204.2117 469.2054,235.8414 37.9266,18.7434 125.9092,69.023 126.8004,132.6649 0.5856,44.0337 -32.9786,93.5699 -64.8029,117.8468 -6.0353,4.6865 -13.4031,10.0214 -21.2912,15.7491 -21.8095,15.7907 -51.7192,37.4163 -61.374,53.9093 -16.2415,27.0724 -25.9249,43.2065 -22.762,102.1421 l 1.0648,19.3166 c 3.6285,65.1281 6.4936,116.5836 -4.6422,161.4452 -12.069,48.1165 -54.4836,138.73 -203.1763,206.4209 -121.1502,54.8422 -176.6248,56.8753 -260.5099,60.0391 -14.2831,0.5314 -29.5762,1.1035 -46.3801,1.9772 -114.0198,5.6865 -228.3992,-48.7602 -233.2091,-51.0737 -0.1567,-0.078 -573.4801,-279.9815 -628.8207,-307.102 -44.8745,-21.6984 -122.6845,-33.1259 -184.3971,-12.897 -60.9901,19.4789 -74.9832,32.1559 -108.8247,62.8141 l -7.8004,7.075 c -34.27167,31.1741 -81.21472,73.8661 -133.84242,84.7704 -28.51898,5.9145 -102.17191,16.967 -169.58181,-8.0337 -35.50724,-13.2088 -82.24447,-47.6492 -142.92355,-105.2409 -26.79249,-25.4031 -78.4424,-51.2841 -143.15945,-47.6584 -18.30866,0.8737 -179.45244,12.2787 -256.92317,125.2708 -27.8689,40.3525 -46.24762,67.0442 -40.68665,136.512 3.66583,45.7935 51.10388,100.8938 77.34794,99.1441 53.75808,-3.3002 68.7272,-8.421 84.55435,-13.8513 14.96992,-5.1108 31.93023,-10.9227 70.48523,-15.2831 99.63192,-11.2261 147.02606,-4.045 209.74507,15.2418 52.20443,16.0153 202.26073,41.8037 278.59616,36.3149 70.84542,-4.7683 384.8487,-36.0743 592.4137,-56.713 107.0709,-10.6578 184.4134,-18.354 198.7875,-19.5046 1.4752,-0.1181 2.9904,-0.2394 4.4657,-0.3575" id="path6" />
</svg>