<svg viewBox="0 0 4493.8583 4493.8583" version="1.1" id="svg21" stroke="currentColor" fill="currentColor">
  <title id="title1">Monaco F1 CRAFTY LITTLE THINGS SHEFFIELD</title>
  <path d="m 661.50176,3475.2989 c -54.44,16.51 -132.77,-9.45 -208.43,-37.55 l -14.25,-5.25 c -28.68,-10.46 -97.48,-39.86 -117.4,-87.21 -15.1,-36 7,-66.74 20.22,-85.1 3.54,-4.92 8.74,-12.15 10.36,-15.8 l -0.8,-27.13 c -3.74,-127.67 -6.94,-268.81 2.55,-330.25 22.29,-144.55 77.67,-352.89 122.06,-519.89 l 4.07,-15.34 c 49.18,-185 215,-492 330.17,-642.77 30.42,-39.8 113.68,-120.62 171.29,-166.35 6.9,-5.47 19.55004,-25 28.79004,-39.18 24.62,-37.91 47.92,-73.7 86.47,-69.14 v 0 c 67.48,8 206.17,61.25 328.49,108.26 19.49,7.49 38.19,14.67 55.6,21.28 72.19,27.4 153.85,48.38 232.82,68.68 48.82,12.55 94.94,24.38 136,37.09 39.7,12.26 77.9,28.34 114.83,43.89 49.75,21 96.74,40.73 146,51.39 45.52,9.85 99.26,12.55 156.15,15.39 64.27,3.22 130.73,6.55 191.45,20.81 57,13.36 112.43,39 166.06,63.81 51.81,24 100.75,46.57 143,54.14 81.7,14.66 145.42,22.2 221.14,-15.1 134.74,-66.24 118.3,-191.71 106.33,-283.22 l -1.76,-13.64 c -1.54,-12.1 -5.68,-29.45 -10.1,-47.79 -15.44,-64.59 -33,-137.74 4.85,-183.63 47.06,-57.09 151.57,-118.43 319.25,-187.45 44.37,-18.26 97.93,-42.26 149.68,-65.49 219,-98.22 283.51,-122.14 320.12,-103.57 39.58,20.05 74.09,102 70,146.28 a 93.51,93.51 0 0 1 -3,16.31 72.4,72.4 0 0 1 19.27,-7.28 c 26.15,-5.5 54.94,2.12 85.42,10.17 14.56,3.86 29.62,7.83 43.76,10.15 132.54,21.65 196.8,59.89 196.5,116.93 -0.26,49 -37.7,105.25 -85.16,176.57 -24.46,36.78 -49.78,74.82 -70.07,112.66 -48.63,90.64 -116.46,183 -196.17,267 -76.3,80.49 -190.95,177.13 -292.15,246.19 -101.2,69.06 -230.56,104 -300.83,101.75 -40.87,-1.34 -80,-2.08 -118.76,-2.82 -68.38,-1.33 -139.13,-2.67 -216.1,-7.34 -119.94,-7.28 -254.3,-15.42 -369,-39.15 -84.7,-17.56 -181.67,-50.3 -259.61,-76.61 -25.69,-8.67 -49,-16.54 -68.46,-22.69 -19.24,-6.1 -39.74,-14.87 -59.57,-23.38 -16,-6.83 -40.23,-17.22 -55.37,-21.39 -0.66,1.6 -1.31,3.17 -1.86,4.53 -7.16,17.42 -18,43.76 -45.75,52.46 -38.86,11.7 -91.69,-9.42 -115.27,-27.77 -19.7,-15.35 -26.15,-39.27 -30.84,-56.75 -0.58,-2.19 -1.32,-4.92 -2.05,-7.41 -80.47,-28.21 -229.79,-87.63 -374.44,-145.21 -149.51,-59.54 -304.17,-121.11 -378,-146.24 -18.54,-5.47 -82.89,38.4 -107.16,55 l -14.65,10 c -145.75004,97.91 -223.15004,269.9 -240.69004,328 -3.75,12.42 7.56,32.81 17.55,50.79 11.1,20 22.57,40.65 23.07,64.13 1.08,50.79 -15.09,92.27 -35.56,144.79 l -0.67,1.71 c -10.61,27.2 -23.31,62 -36.74,98.82 -33,90.38 -70.4,192.94 -103.17,257.43 -21.74,42.82 -70.78,33.26 -97.14,28.14 -4.67,-0.91 -11.29,-2.19 -16.75,-3 -15,36.17 -32.42,123.23 -40,204 -6.72,70.89 -3.94,163.36 6.77,224.83 5,28.6 25.89,62.38 42.71,89.53 6.47,10.46 12.43,20.13 17.15,28.68 3.15,5.74 9.36,13 15.38,20.08 13.42,15.79 28.64,33.67 33,58.07 8.48,47.62 -3.05,102.41 -47.94,117.34 -0.87,0.28 -1.73,0.56 -2.62,0.83 m -261,-158.39 c 9.19,9.29 31.85,24.85 67.2,37.73 l 14.7,5.43 c 35,13 113.47,42.12 150.37,37.59 a 79,79 0 0 0 -0.38,-24.19 c -1.21,-3.43 -9.49,-13.17 -15,-19.63 -8.19,-9.6 -17.45,-20.5 -24.54,-33.35 -4.15,-7.54 -9.4,-16 -15.07,-25.16 -20.52,-33.12 -46,-74.31 -53.68,-118.55 -12,-69.06 -15,-168.33 -7.54,-247 6.13,-64.53 26.05,-200 57.66,-251.08 23.7,-38.42 69.17,-29.56 96.31,-24.26 4.55,0.88 10.4,2 15.38,2.77 29.12,-60.75 62.84,-153 92.79,-235 13.64,-37.28 26.51,-72.47 37.45,-100.53 l 0.67,-1.7 c 18.48,-47.32 30.67,-78.55 29.94,-112.86 -0.63,-4.32 -8,-17.64 -12.92,-26.45 -16,-28.89 -38,-68.45 -24.12,-114.16 0.71,-2.36 74,-238.47 273.85004,-372.59 l 14.13,-9.59 c 54.57,-37.24 122.41,-83.57 177.71,-64.73 75.64,25.76 224.23,84.94 381.5,147.56 150.39,59.8 305.88,121.71 381.39,147.48 29.07,9.93 36.9,39.1 42.11,58.4 1.28,4.71 3.28,12.21 4.88,15.81 9.38,6.37 24.45,11.32 34.41,12.82 0.75,-1.79 1.5,-3.61 2.14,-5.15 7.74,-18.9 22.07,-54 60.45,-56.5 28.89,-1.88 62.66,12.6 101.73,29.35 18.07,7.76 36.75,15.76 52.3,20.67 19.9,6.29 43.65,14.32 69.88,23.17 75.9,25.62 170.32,57.53 250.35,74.12 109.13,22.61 240.45,30.58 356.24,37.63 76.83,4.69 143.6,6 214.28,7.34 39.12,0.76 78.54,1.53 119.74,2.88 58.7,1.94 169.9,-30.49 254.26,-88 96.94,-66.12 206.6,-158.4 279.37,-235.09 74.94,-79 138.52,-165.34 183.88,-249.77 22.11,-41.16 48.51,-80.79 74,-119.08 30.28,-45.48 67.56,-101.43 71.47,-128.26 -10.65,-10.23 -52.1,-28.74 -129.92,-41.45 -17.82,-2.9 -35.49,-7.58 -51.08,-11.7 -16.85,-4.46 -39.72,-10.49 -48.79,-9.4 -5.55,2.91 -15.36,13.77 -17.25,19.24 -3.82,23.38 5.19,66.74 13.16,105 13.2,63.45 24.59,118.28 -1.06,154.48 -11.26,15.92 -28,25.57 -48.26,27.86 -35.13,4 -61.64,-4 -78.83,-23.67 -27.22,-31.25 -17.08,-75.18 -9.66,-107.26 2,-8.52 5,-21.39 4.82,-25.69 -0.29,-11.73 -4.05,-31.57 -7.65,-50.75 -6.62,-35.05 -13.46,-71.3 -8.74,-98.94 4.14,-24.22 16.13,-44.89 26.71,-63.12 6.49,-11.16 14.55,-25 15.2,-31.92 1.21,-13.1 -13.61,-50.36 -24.75,-64.42 -39.09,5.42 -168.18,63.39 -255.42,102.53 -52.29,23.49 -106.41,47.78 -151.91,66.53 -191,78.69 -262.26,133 -288.37,164.76 -12.19,14.8 4.33,83.7 11.38,113.13 5,20.56 9.61,40 11.7,56.53 l 1.73,13.26 c 12.6,96 36.09,274.81 -150.38,366.59 -104.79,51.56 -196.12,35.16 -269.58,22 -52.09,-9.35 -105.48,-34 -162,-60.16 -50.13,-23.16 -102,-47.13 -151.21,-58.68 -53.86,-12.63 -116.74,-15.77 -177.58,-18.81 -57.55,-2.85 -117.06,-5.84 -168.87,-17 -56.46,-12.21 -109.06,-34.36 -160,-55.78 -36.8,-15.49 -71.56,-30.14 -107.59,-41.26 -39.34,-12.15 -84.58,-23.77 -132.51,-36.06 -81.07,-20.84 -165,-42.38 -241.26,-71.33 -17.5,-6.64 -36.32,-13.88 -55.93,-21.41 -99.7,-38.31 -234,-89.9 -297.9,-101.77 -6.37,7.92 -15.29,21.69 -21.18,30.77 -14.36,22.15 -29.2,45 -46.62,58.86 -56.00004,44.47 -133.15004,120.71 -157.00004,151.92 -108.07,141.65 -269.59,440.66 -315.48,613.7 l -4.07,15.34 c -43.79,165.08 -98.43,371 -120,511.1 -9.1,59 -3.94,231.77 -1.45,314.92 l 0.84,29.31 c 0.77,27.92 -14.92,49.75 -26.37,65.69 -1.89,2.62 -4.31,6 -6.28,9 m 3508.00004,-1836.94 c 0.91,0 1.94,0 3.1,0 a 94.73,94.73 0 0 0 -0.43,-17.67 140,140 0 0 0 -2.67,17.71 m -2822.08,34.46 v 0" id="path7" />
</svg>