<svg viewBox="0 0 4493.8583 4493.8583" version="1.1" id="svg21" stroke="currentColor" fill="currentColor">
  <title id="title1">Monza F1 CRAFTY LITTLE THINGS SHEFFIELD</title>
  <path d="m 3162.7934,3126.7506 c -225,-4.42 -479.58,-12.12 -716.15,-19.28 -263.29,-7.94 -490.68,-14.82 -621.88,-15.55 h -0.91 c -42.26,-0.84 -52,-45.76 -57.92,-72.68 -0.61,-2.9 -1.42,-6.54 -2.28,-10.14 -88.8,39.33 -187.26,77.25 -389.89,76.83 -147.38,-0.43 -358.73,-18.15 -489.72,-168.67 -126.57,-145.38 -192.52,-299.72 -220.48,-516 -8.13,-62.81 -15.61,-131.17 -22.84,-197.27 -14.49,-131.79 -28.1,-256.27 -45.79,-336.44 -1.82,-8.14 -1.82,-8.14 -16.57,-12.5 -23.76,-7 -68,-20 -74.1,-94 -3.84,-46.83 -52.16,-156.48 -94.79,-253.21 -34.24,-77.7 -66.53,-151.04 -82.66,-204.37 -10.78,-35.55 -2.37,-78.31 23.72,-120.5299 19.66,-31.87 53.1,-68.09 87.86,-74 87.37,-14.79 156.1,-26.67 210.78,-36.12 188.74,-32.62 212.94,-36.86 257.36002,-33.67 55.21,3.91 111.50998,91.36 236.24998,305.1199 25.37,43.5 49.37,84.61 71.68,120.82 124.93,202.67 355.77,424.42 518.57,573.56 66.53,61 132.78,133.24 196.83,203.11 75.33,82.16 146.47,159.73 198.14,195.55 12,8.37 30.25,6.47 61.53,2.46 33.76,-4.37 75.8,-9.76 124.07,3.55 32.08,8.86 58.17,34.57 83.43,59.46 19.2,18.94 43.1,42.49 57.68,43.32 161.15,8.94 503.38,22.54 834.33,35.7 334,13.27 679.37,27 836.54,35.88 82.07,4.62 151.58,94 156.66,167.73 5.36,77.11 -51.67,194.48 -156.28,257.52 -116.77,70.33 -322.67,83.22 -527.8,86.68 -115.22,1.93 -267,0.45 -435.37,-2.86 m -1221.38,-107 c 132.16,2.62 309.7,8 507.46,13.93 412.75,12.46 880.58,26.66 1148.07,22.13 185.45,-3.12 388.85,-14.6 490.95,-76.1 90.82,-54.7 123.45,-150.25 120.75,-189.26 -2.78,-40.46 -46.43,-96.87 -87.22,-99.18 -156.56,-8.79 -501.62,-22.56 -835.32,-35.81 -331.26,-13.16 -673.75,-26.79 -835.51,-35.76 -42.42,-2.35 -75.89,-35.33 -105.41,-64.43 -17.68,-17.41 -37.73,-37.14 -51.23,-40.93 -34,-9.4 -65,-5.41 -95,-1.51 -37.89,4.89 -77,9.93 -113,-15 -58.38,-40.48 -132.25,-121 -210.44,-206.32 -63,-68.71 -128.16,-139.76 -192.32,-198.55 -166.05,-152.09 -401.79,-378.69 -531.55,-589.27 -22.79,-37 -47,-78.44 -72.62,-122.34 -54.97,-94.21 -146.53998,-251.0799 -180.36998,-268.8899 -34.08002,-1.94 -64.32002,3.14 -237.00002,33 -54.73,9.46 -123.51,21.33 -211,36.19 -17.31,5.83 -63.79,66.0699 -53.39,100.3699 14.87,49 47.78,123.74 79.6,196 49.34,112 95.94,217.74 100.82,276.93 2.01,23.52 4.55,24.32 21.55,29.26 19.72,5.83 56.5,16.68 67.7,67.32 18.62,84.09 32.44,210.49 47.12,344.33 7.2,65.74 14.66,133.74 22.69,195.84 32.62,252.44 121,382.87 203.00002,477.16 84.68998,97.3 222.68998,143 434.23998,143.35 201.47,0.4 287.6,-38.11 378.81,-78.93 15.82,-7.1 32.32,-7 46.42,0.11 26.44,13.35 33,43.57 38.83,70.23 0.94,4.36 2.15,9.93 3.39,14.74 29.38,0.23 62.89,0.75 100,1.49 M 901.23342,1112.7207 h 0.12 a 0.24,0.24 0 0 0 -0.12,0" id="path6" />
</svg>