<svg viewBox="0 0 4493.8583 4493.8583" version="1.1" id="svg21" stroke="currentColor" fill="currentColor">
  <title id="title1">Red Bull Ring F1 CRAFTY LITTLE THINGS SHEFFIELD</title>
  <path d="m 1869.5804,3586.1221 c -31.86,-13.61 -50.83,-55.64 -68.07,-93.79 -10.18,-22.52 -20.69,-45.84 -33,-65.59 -38,-60.94 -97.36,-138.05 -145,-200 -15.06,-19.56 -29,-37.7 -40.89,-53.5 -159.05,-211.26 -306.39,-431.28 -414.88,-619.53 -89.86,-156 -169.22004,-341.1 -239.20004,-504.45 -20.14,-47 -39.62,-92.45 -58.52,-135.31 -62.79998,-142.32 -139.17998,-254.92 -272.41998,-401.63 -93.19,-102.59 -208,-224.67 -292.58,-311 -20.42,-20.85 -47.24,-46.34 -75.63,-73.31 -76.52,-72.7 -128.24,-122.89 -149.260001,-157.25998 a 74.07,74.07 0 0 1 -4.62,-69.65 c 13.11,-29.43 45.290001,-52.84 81.950001,-59.66 112.2,-20.92 423.4,-42.48 636.72,-27.32 159.67998,11.34 359.76002,50.7 536.31002,85.41 75.66,14.88 147.15,28.93 204.77,38.53 49.87,8.31 103.77,18.87 160.83,30.06 92.93,18.24 189,37.07998 270.24,46.29998 112.33,12.77 262.08,20.13 394.22,26.63 57.57,2.82 110.6,5.43 153.68,8.19 27.8,1.77 61.76,2.58 97.71,3.46 75.05,1.81 145.95,3.54 185.31,13.83 51.57,13.41 80,67.33 85.5,114.75 0,0 0,0 0,0 7.29,63.4 -53.82,160 -72.72,188.14 -41.12,61.19 -119.84,133.4 -210.56,193.16 -95.93,63.15 -239.56,104.27 -374.87,107.3 -72.64,1.6 -219.78,-23.84 -362.08,-48.45 l -58.5,-10.06 c -12.95,-2.2 -26.34,-4.57 -40,-7 -95.6,-16.85 -214.57,-37.81 -279.26,-21.64 -54.64,13.7 -109.78,74.19 -133.93,124.17 -24.07,49.81 -25.88,116.1 -4.3,157.63 57.89,111.43 200.4,370 264.52,481.72 28.17,49.14 99.54,88.55 152.24,98.24 52.25,9.6 145.5,-22.54 161.89,-38 22.17,-20.91 47.12,-52.13 73.56,-85.21 41.75,-52.3 89.1,-111.53 140.86,-148 72.36,-50.9 168.73,-110.69 272.79,-121.34 142,-14.52 379,-17.47 608.29,-20.33 85.62,-1.07 169.35,-2.11 245,-3.74 67,-1.47 139.31,-3.39 212.64,-5.35 218.66,-5.84 444.77,-11.91 568.74,-6 82,3.85 171.11,64.25 203,137.5 39,89.69 102.13,313.21 143.92,461.13 10.59,37.51 19.79,70.06 26.81,94.13 19,65.08 -31.85,108.16 -65.49,136.66 -4.56,3.85 -9.06,7.68 -13.43,11.54 -69.31,61.48 -195,126.15 -312.64,160.87 -152.13,44.88 -447.08,123.89 -759.34,207.59 l -71,19 c -169.25,45.36 -347.1,94 -519.07,140.94 -363.82,99.39 -678,185.25 -775.56,203.49 -13.08,2.47 -24.52,1 -34.66,-3.33 M 160.81038,933.03212 c 22.67,30 81.24,85.67998 129.18,131.20998 29,27.54 56.35,53.54 77.88,75.52 85.25,87.07 201,210.1 294.84,313.44 140.15,154.32 220.83998,273.56 287.76998,425.28 19,43.12 38.64,88.89 58.89004,136.15 69,161.11 147.29,343.73 234.56,495.19 106.76,185.23 252,402.05 408.94,610.56 11.74,15.59 25.48,33.46 40.33,52.72 48.85,63.48 109.64,142.47 149.93,207.1 15.45,24.74 27.73,51.95 38.56,75.94 6.22,13.75 14.84,32.86 21.36,43.87 110.23,-23.12 423.17,-108.63 753.55,-198.89 172.1,-47 350,-95.63 519.49,-141.06 l 71,-19 c 311.73,-83.54 606.15,-162.44 757.2,-207 103.1,-30.43 220.52,-90.3 279.2,-142.34 4.83,-4.27 9.84,-8.53 14.91,-12.82 18.21,-15.45 40.89,-34.67 37.88,-44.91 -7.06,-24.23 -16.32,-57 -27,-94.86 -41.12,-145.63 -103.28,-365.7 -139.91,-449.95 -18.3,-42.12 -78.59,-82.52 -126.41,-84.7 -120.75,-5.69 -345.22,0.31 -562.26,6.12 -73.51,2 -146,3.9 -213.12,5.34 -75.9,1.62 -159.91,2.68 -245.82,3.76 -227.31,2.83 -462.37,5.76 -600.43,19.9 -83.8,8.55 -167.54,61 -231.12,105.74 -41.49,29.22 -82.81,80.93 -122.75,130.92 -28.43,35.6 -55.27,69.17 -82,94.35 -40.46,38.08 -163.18,74.23 -238.15,60.44 -73.17,-13.51 -169.74,-66.25 -212.62,-141 -64.51,-112.38 -208,-372.7 -266.27,-485 -39.77,-76.55 -27.06,-173.92 3.15,-236.48 32.62,-67.49 106.54,-149.87 191.79,-171.21 82.85,-20.74 206.65,1.07 315.88,20.33 13.52,2.38 26.76,4.71 39.59,6.89 l 58.67,10.11 c 131.72,22.77 281,48.59 345.15,47.19 117.87,-2.66 246.78,-39.1 328.41,-92.85 80.25,-52.86 151.52,-117.52 185.93,-168.73 36.82,-54.78 60.29,-112 58.33,-129 -2.5,-21.62 -13.18,-37.91 -20.35,-39.69 -29.47,-7.71 -101.57,-9.48 -165.19,-11 -36.85,-0.91 -71.64,-1.74 -101.17,-3.64 -42.73,-2.72 -95.32,-5.29 -152.42,-8.1 -133.45,-6.56 -284.69,-14 -399.83,-27.06 -84.71,-9.64 -182.59,-28.84 -277.23,-47.41 -56.42,-11.06 -109.72,-21.51 -158.32,-29.6 -58.91,-9.83 -131,-24 -207.33,-38.99998 -174,-34.22 -371.30004,-73 -525.57002,-84 -199.31,-14.15 -505.33,5.74 -614.37,26.06 a 37.13,37.13 0 0 0 -12.73,5.17" id="path12" />
</svg>