<svg viewBox="0 0 4493.8583 4493.8583" version="1.1" id="svg21" stroke="currentColor" fill="currentColor">
  <title id="title1">Red Bull Ring F1 CRAFTY LITTLE THINGS SHEFFIELD</title>
  <g id="use4026" transform="translate(60.627283,830.35925)">
    <path class="cls-1" d="m 1683.52,1226.41 c 144.16,-350.43 285,-705.86 417.25,-1053.8 16.53,-43.52 63.19,-82.19 104.31,-103.12 45.81,-23.33 100.34,-32.37 150.54,-30.82 52.53,1.61 112.88,11.89 157.66,40.3 37.41,23.74 71.45,64.51 90.08,104.31 16.14,34.48 22.07,81.67 14.23,118.54 -8,37.42 -33.51,77.84 -61.64,104.31 -25.61,24.1 -64.9,39.61 -94.83,33.19 -36.45,-7.81 -74.62,-45.87 -90.09,-88.9 -11.72,-32.59 -62.13,-60.37 -88.9,-69.94 -17.48,-6.24 -59,11.08 -74.68,26.08 -20.67,19.77 -40.45,55.72 -40.3,83 0.16,31.37 20,73.9 37.93,101.94 21.54,33.6 51.2,71.37 85.35,93.64 38.55,25.15 88,48.3 132.76,43.86 78.32,-7.75 170.65,-23.22 256,-35.56 188,-27.17 375.87,-54 564.23,-78.23 45.55,-5.85 99,-10.23 143.43,0 206.23,47.45 399.61,98.78 602.17,156.47 36.09,10.27 79.87,19.89 105.5,42.67 17,15.15 18.29,47.88 11.85,66.38 -6.21,17.85 -25.09,29.18 -47.41,37.93 -58.28,22.86 -118.78,44.46 -180.18,56.9 -63.46,12.85 -130.71,12.49 -195.58,10.67 -159.56,-4.5 -317.94,-20.57 -477.71,-29.64 -63.08,-3.58 -128,-9.61 -189.66,0 -60,9.35 -120.47,34.15 -170.69,65.2 -36.7,22.69 -68.84,57.18 -90.09,96 -24.59,44.94 -41.45,96.55 -52.15,147 -11.43,53.87 -10.64,113.16 -1.19,166 9.51,53.11 30.57,103.26 58.08,151.73 38.87,68.48 89.57,130.55 128,199.14 20,35.72 42.2,74.31 47.42,113.8 5.85,44.27 3.77,97.59 -14.23,137.5 -18.35,40.7 -57,78.15 -94.83,104.31 -44.39,30.74 -99,63.87 -151.72,66.38 -80,3.81 -163.92,-36.39 -246.56,-47.41 -35.9,-4.79 -75,-4.51 -101.94,10.67 -23.6,13.27 -37.85,44.31 -35.56,73.49 4,51.43 28.48,104.89 47.41,157.65 16,44.58 25.53,88.82 52.16,117.35 17.62,18.89 51.55,25.08 80.6,24.9 69.08,-0.43 135.54,-2.11 205.07,1.18 398.29,18.84 802.51,38.83 1199.6,52.16 26.46,0.89 49.17,-17.43 60.45,-39.12 9.27,-17.83 -5.76,-42.74 -10.67,-64 -9.31,-40.37 -42.29,-85.73 -32,-120.91 16.1,-55.06 43.7,-72.45 81.79,-79.42 40.33,-7.37 92.66,-8.54 136.31,2.38 51.18,12.79 101.4,37 141.06,69.93 34.62,28.73 56.35,58.79 69.94,101.94 13.28,42.19 16.3,92.67 7.11,136.32 -9.77,46.44 -39,90.92 -66.38,130.39 -26.35,38 -57.07,74.14 -96,98.39 -44.82,27.9 -97.55,50.8 -150.55,56.9 -125.6,14.45 -253.66,5.36 -381.68,4.74 -1179,-5.71 -2358,-0.44 -3534.78,-19 -27.55,-0.43 -52.53,-11.72 -60.45,-28.45 -6.3,-13.3 21.59,-48.25 40.3,-58.08 74.54,-39.17 149.61,-68.92 234.7,-81.79 103,-15.58 200.09,-7.67 305.83,-13 174.68,-8.86 339.16,-14.3 512.08,-22.52 25.13,-1.2 66.26,-10.87 77,-34.38 14.65,-31.93 20.6,-69.79 33.19,-104.31 147,-403.27 277.6,-806.07 441,-1203.15 z" id="path9" />
  </g>
</svg>