<svg viewBox="0 0 4493.8583 4493.8583" version="1.1" id="svg21" stroke="currentColor" fill="currentColor">
  <title id="title1">Spa-Francorchamps F1 CRAFTY LITTLE THINGS SHEFFIELD</title>
  <path d="m 4008.0949,3335.7141 c -60.62,2.09 -142.12,-12.26 -185.71,-22.39 -68.38,-16 -173.6098,-58.13 -244.8098,-98.14 -67.33,-37.83 -260.64,-182.43 -309.72,-235.21 -36.71,-39.48 -78,-95 -117.93,-148.66 -25.5,-34.31 -51.89,-69.79 -75.9,-99.41 -18.05,-22.25 -34.22,-44.18 -49.85,-65.38 -34.41,-46.69 -66.91,-90.78 -111.46,-126.47 -68.63,-55 -115,-85.24 -192.9,-108.54 -57.92,-17.31 -125.6,-34.51 -185.31,-49.68 -35.64,-9.06 -68.16,-17.33 -93.71,-24.37 -79.4,-21.93 -134.7,-29.38 -164.19,-22 -32.43,8 -104.41,52.06 -157,84.23 -29.37,18 -57.11,34.92 -78.37,46.28 -27.57,14.69 -58,32.66 -90.12,51.71 -96,56.84 -215.45,127.56 -341,156.36 -44.17,10.15 -101.76,26.32 -157.46,42 -141,39.61 -206.33,56.39 -239.26,51.34 -41.55,-6.44 -49.1,-50.28 -55.14,-85.52 -1,-6.15 -2.46,-14.31 -4,-21.77 -94.17,69.63 -289.50005,236.56 -462.67005,384.53 -135.89,116.13 -264.22,225.81 -333,279.51 -4.55,3.56 -9.84,8 -15.69,13 -41.06,34.52 -103.13,86.69 -158.19,55.84 -8.81,-4.95 -20.29,-15 -25,-34.9 -20.41,-85.63 133.06,-501.45 223.63,-636.23 59.92,-89.18 143,-188.08 216.35,-275.34 18.47,-22 36.26,-43.18 52.81,-63.18 23.46,-28.32 49.88,-57.1 75.44,-85 51.54,-56.15 104.83,-114.21 127.12,-162 2.67,-5.76 5.85,-13.17 9.55,-21.72 19.84,-46.11 53,-123.29 101,-170.18 35.00005,-34.18 90.93005,-55.15 145.06005,-75.4 38.38,-14.39 78.07,-29.24 105.41,-47.17 41.61,-27.3 73.94,-58.23 108.17,-91 18,-17.26 36.67,-35.13 57.61,-53.4 22.29,-19.44 51.16,-46.89 84.61,-78.7 90.86,-86.38 204,-193.9 283.53,-234.2 258.26,-130.83 808.78,-392.99997 1173.09,-566.50997 96.92,-46.18 180.09,-85.77 240.07,-114.5 l 5.4,-2.59 c 39.71,-19.1 94.07,-45.34 142.9,-32.47 30.19,7.93 53.24,30.8 75.51,52.93 21.23,21 43.18,42.84 63.68,43.17 19.35,0.57 67.57,-22.18 106.19,-40.27 88,-41.3 179.0698,-83.94 237.3998,-36.14 112.7,92.25 396.18,379.43997 484.53,481.41997 42.25,48.73 31.95,158.94 -19,203.34 -59,51.35 -147.58,37.34 -188.89,7.48 -30.11,-21.75 -72.28,-70.62 -116.92,-122.33 -34.43,-39.89 -90.5,-104.86 -114.09,-120.44 -26.77,8.9 -103.84,47.86 -166.7998,79.66 -100.58,50.85 -214.56,108.45 -303.49,142.15 -52.6,19.93 -110.13,40.41 -165.77,60.19 -118.1,42 -240.24,85.5 -307.55,121.36 -55.16,29.39 -62.07,69.35 -66.91,131.63 -4.73,61.27 12.11,171 41.78,226.21 28.56,53.15 80.42,98.77 135.35,119.06 96,35.47 315.52,78.86 475.8,110.54 48.8,9.63 93.21,18.44 129,25.92 66.88,14 155.6598,41 198.6198,89.72 59.66,67.69 34.86,151.06 14.93,218.06 -14.87,50.05 -29,97.35 -11.66,131.85 23.84,47.65 152.32,97 255.56,136.61 126,48.38 234.74,90.13 262.92,154.13 34.21,77.8 -144.25,379.41 -146.11,382.35 -39.9,63.33 -118,81.37 -149.78,86.2 a 244.17,244.17 0 0 1 -27.65,2.37 m -1713.9998,-1085.69 c 54.51,-1.87 120.27,14 168.77,27.38 25.1,6.92 57.07,15 92.1,23.94 60.49,15.39 129,32.8 188.64,50.63 90.54,27.06 145.49,62.74 221,123.28 53,42.47 88.67,90.81 126.4,142 15.07,20.45 30.67,41.61 47.5,62.37 25.1,31 52,67.14 78,102.14 38.58,51.88 78.48,105.51 112.11,141.65 43.26,46.55 229.4,185.56 289.57,219.37 64.25,36.11 162.2098,75.5 222.9998,89.68 58.55,13.6 142.22,24.85 182.05,18.77 32.9,-5 74.33,-20.3 92,-48.36 49,-77.77 137.35,-263.78 138.72,-307.65 -19.8,-32.05 -132.25,-75.22 -215,-107 -134.63,-51.71 -261.76,-100.52 -300.05,-177 -32,-63.87 -11.64,-132.32 6.31,-192.7 19.62,-65.92 30.21,-107.92 2.38,-139.51 -20.82,-23.6 -79.5798,-47.88 -153.3698,-63.34 -35.5,-7.43 -79.57,-16.15 -128,-25.73 -172.11,-34 -386.28,-76.34 -488.49,-114.09 -74.23,-27.43 -141.42,-86.37 -179.7,-157.67 -37.9,-70.47 -57.18,-197.53 -51.41,-271.92 4.48,-58 11.26,-145.56 110.64,-198.5 72.72,-38.76 192.22,-81.28 318.76,-126.3 55.24,-19.67 112.36,-40 164.16,-59.62 84.81,-32.14 201.63,-91.17 295.48,-138.6 142.8798,-72.23 181.6798,-90.53 207.9998,-90 40.11,0.74 79.33,41.88 173.17,150.61 37.72,43.7 80.47,93.22 102.69,109.3 13.5,9.76 58.92,20.55 85.69,-2.8 17.67,-15.39 22.57,-72.76 10.82,-86.33 -86.21,-99.44 -367.94,-384.33997 -474.4,-471.48997 -17.92,-14.61 -110.1498,28.61 -149.5698,47.09 -55.87,26.19 -104.29,48.6 -142.83,48.12 -53.89,-0.9 -91,-37.72 -120.79,-67.3 -13.12,-13 -29.48,-29.27 -38.12,-31.53 -19.28,-5 -62.49,15.78 -85.76,27 l -5.55,2.67 c -60.04,28.72 -143.19,68.36 -240.19,114.6 -364,173.25997 -914,435.18997 -1171.33,565.57997 -68.69,34.78 -181.48,142 -263.83,220.31 -34.12,32.44 -63.59,60.45 -87.2,81.07 -19.51,17 -37.47,34.2 -54.83,50.83 -35.42,33.89 -72.06,69 -120,100.42 -35.08,23 -79.19,39.53 -121.83,55.49 -46.08,17.25 -93.69,35.07 -116.14,57 -36.23005,35.44 -65.39005,103.16 -82.80005,143.65 -4.08,9.42 -7.59,17.6 -10.55,23.94 -27.73,59.45 -85.41,122.31 -141.21,183.11 -24.85,27.07 -50.55,55 -72.66,81.76 -16.66,20.13 -34.59,41.48 -53.21,63.62 -72,85.67 -153.57,182.77 -211,268.23 -80,119.05 -191.59,434.12 -209.58,541.35 16.89,-10.8 37.09,-27.82 46.75,-35.95 6.72,-5.64 12.83,-10.77 18.07,-14.87 67.27,-52.57 194.94,-161.69 330.12,-277.2 190.62,-162.9 387.74005,-331.34 479.65005,-397.22 31.11,-22.28 55.88,-19.49 71.17,-13.2 37.72,15.48 45.46,60.54 51.68,96.75 0.83,4.78 1.83,10.64 2.89,16.06 39.5,-6.29 126.4,-30.71 187.2,-47.8 56.64,-15.91 115.22,-32.37 161.34,-43 113,-25.91 221.55,-90.18 317.32,-146.87 33,-19.54 64.13,-38 93.31,-53.56 19.11,-10.18 45.84,-26.53 74.12,-43.83 66.6,-40.75 135.46,-82.88 180.35,-94 a 181.41,181.41 0 0 1 37.46,-4.82" id="path18" />
</svg>