<svg viewBox="0 0 4493.8583 4493.8583" version="1.1" id="svg21" stroke="currentColor" fill="currentColor">
  <title id="title1">Las Vegas F1 CRAFTY LITTLE THINGS SHEFFIELD</title>
  <path d="m 4214.6575,1791.7252 v 0 l 20.88,1369.64 a 36.66,36.66 0 0 1 -0.71,7.75 l -13.23,66.25 a 36.65,36.65 0 0 1 -6.35,14.45 l -28.79,39.46 c -0.7,1 -1.45,1.89 -2.24,2.78 l -135.91,152.64 a 36.69,36.69 0 0 1 -27.85,12.29 l -83.93,-1 -471.26,5.34 c -0.5,0 -1,0 -1.5,0 l -570.25,-16.88 -937.5699,-3.71 a 35.71,35.71 0 0 1 -3.87,-0.22 l -169.77,-18.7 c -0.8,-0.08 -1.61,-0.2 -2.41,-0.34 l -270.48,-48.07 a 37.81,37.81 0 0 1 -4.11,-1 l -302.22,-90.51 c -0.47,-0.14 -0.93,-0.29 -1.4,-0.45 l -139.21,-47.84 a 37,37 0 0 1 -5,-2.15 l -779.39004,-405.48 a 36.71,36.71 0 0 1 -18.71,-41.33 l 39.15,-159.36 0.21,-0.84 26.45,-97.69 c 0.32,-1.18 0.7,-2.34 1.13,-3.48 l 26.31,-69 a 36.68,36.68 0 0 1 7.7,-12.22 l 63.98,-67.33 a 37.51,37.51 0 0 1 5.62,-4.83 l 63.13,-44 a 36.3,36.3 0 0 1 5.79,-3.29 l 291.24,-132.56 54.84,-35.74 34.7,-42.73 22,-35.3 29.38,-63.54 12.06,-45.82 1.51,-131.33 8.36,-699.05 a 36.73,36.73 0 0 1 35.37,-36.28 l 19.89004,-0.72 a 36.27,36.27 0 0 1 4,0.07 l 20.91,1.55 a 37.07,37.07 0 0 1 7.57,1.38 l 136.1,39.5 28.18,-1.53 1.42,-1.31 0.31,-59.37 a 36.68,36.68 0 0 1 6.08,-20.06 l 3.79,-5.73 a 36.93,36.93 0 0 1 11,-10.77 l 5.32,-3.37 a 36.81,36.81 0 0 1 12.61,-5 l 8.29,-1.68 a 36.87,36.87 0 0 1 9.2,-0.62 l 53.15,3.11 a 36.91,36.91 0 0 1 3.79,0.42 l 57.44,9.4 a 37,37 0 0 1 7,1.87 l 68.84,25.92 a 36.55,36.55 0 0 1 7.46,3.84 l 52.29,34.94 a 38,38 0 0 1 4,3.07 l 68.62,60.93 a 36.74,36.74 0 0 1 5.5,6.12 l 32.57,45.61 a 36.58,36.58 0 0 1 3.78,6.67 l 76.06,174.58 a 36.66,36.66 0 0 1 3.06,14.66 l 0.07,355.42 1972.6999,-46.88 11.87,-13.16 9.64,-13.91 2.17,-20.46 -4.06,-31.81 -17.76,-32.8 -19.65,-20.52 -107.5,-112.87 a 36.41,36.41 0 0 1 -3.75,-4.64 l -95.37,-139.85 a 36.21,36.21 0 0 1 -2.46,-4.17 l -17.89,-35.5 a 36.63,36.63 0 0 1 -3.72,-12.69 l -7.07,-67.31 a 37.08,37.08 0 0 1 2.05,-16.51 l 16.57,-45 a 36.47,36.47 0 0 1 7.08,-11.79 l 21.09,-23.61 a 36.72,36.72 0 0 1 9.49,-7.61 l 24.27,-13.53 a 36.8,36.8 0 0 1 17.29,-4.64 l 37,-0.61 a 36.66,36.66 0 0 1 14.27,2.64 l 41.44,16.61 a 36.43,36.43 0 0 1 10.2,6.18 l 491.41,420.36 a 36.41,36.41 0 0 1 6.64,7.48 l 37.93,56.65 a 36.84,36.84 0 0 1 4.7,10 l 48,162.7 a 36.45,36.45 0 0 1 1.47,9.82 z m -52.61,1366.89 -20.74,-1360.71 -45,-152.51 -32,-47.81 -483,-413.15 -29,-11.62 -20.35,0.34 -10.8,6 -12.32,13.8 -11.2,30.44 5.47,52.13 13.78,27.34 92.42,135.39 128.4,134.65 a 36.72,36.72 0 0 1 5.77,7.91 l 23.39,43.18 a 36.78,36.78 0 0 1 4.13,12.83 l 5.48,42.87 a 38,38 0 0 1 0.09,8.53 l -3.62,34.07 a 36.69,36.69 0 0 1 -6.34,17 l -16.32,23.54 a 35.39,35.39 0 0 1 -2.98,3.7 l -24,26.65 a 36.71,36.71 0 0 1 -26.4,12.12 l -2026.1499,48.16 a 36.71,36.71 0 0 1 -37.59,-36.7 l -0.08,-385.37 -71.46,-164 -27.93,-39.1 -63.64,-56.51 -46.68,-31.25 -61.48,-23.15 -52,-8.51 -30,-1.75 -0.22,41.95 a 36.73,36.73 0 0 1 -3.44,15.32 l -5.1,11.14 a 36.9,36.9 0 0 1 -8.27,11.38 l -17.64,16.4 a 36.69,36.69 0 0 1 -23,9.77 l -47.69,2.57 a 36.56,36.56 0 0 1 -12.22,-1.4 l -136.39,-39.56 -8,661.75 -1.55,135.85 a 36.39,36.39 0 0 1 -1.21,8.93 l -14,53.34 a 37.1,37.1 0 0 1 -2.18004,6.06 l -31.68,68.54 a 37.79,37.79 0 0 1 -2.17,4 l -24.41,39.18 a 37.65,37.65 0 0 1 -2.66,3.73 l -39.77,49 a 36.74,36.74 0 0 1 -8.46,7.62 l -62,40.4 a 37.3,37.3 0 0 1 -4.84,2.66 l -290.69,132.31 -57.32,40 -56.3,59.24 -23,60.46 -25.85,95.5 -32.26,130.88 751.33004,390.91 135.94,46.72 299.46,89.69 267.23,47.49 166.61,18.35 936.1099,3.7 h 0.94 l 569.95,16.87 471,-5.34 h 0.85 l 67.62,0.8 123.61,-138.76 23,-31.49 z" id="path9" />
</svg>