<svg viewBox="0 0 4493.8583 3178.5827" version="1.1" id="svg21" stroke="currentColor" fill="currentColor">
  <title id="title1">Gilles Villeneuve F1 CRAFTY LITTLE THINGS SHEFFIELD</title>
  <path d="m 2260.4241,639.46011 c 47.7241,11.5168 93.8404,33.81886 129.8275,54.64629 111.8265,64.71522 332.2588,218.26854 482.0761,343.7326 121.4846,101.6692 268.649,274.0421 437.4417,512.3011 27.5433,38.9 1.3132,73.7183 -14.3636,94.5408 -16.8828,22.4033 -23.8313,34.009 -19.5255,50.5959 19.5361,75.6004 81.3199,160.0006 99.8047,184.0507 68.2983,88.9961 160.8058,198.3837 247.4356,292.6303 79.0322,85.9521 139.7523,136.9778 246.0196,218.8461 40.942,31.5427 176.6335,89.8109 249.51,121.0499 27.6418,11.8731 47.6006,20.4294 57.0813,25.1134 1.676,0.8418 3.9889,1.8375 6.7289,2.9958 22.6704,9.7558 69.8356,30.063 83.7292,72.1672 5.0907,15.4737 7.5746,40.0723 -9.5865,69.5731 -42.0068,72.1789 -120.5753,32.9873 -150.0968,18.2391 -5.2617,-2.6058 -9.9439,-4.9952 -13.8839,-6.6145 -23.484,-9.5822 -52.654,-29.6494 -83.5537,-50.8864 -26.6052,-18.3012 -59.7397,-41.0676 -74.5085,-45.3538 -48.2278,-14.0282 -103.2299,-27.7775 -156.405,-41.1517 -43.789,-10.9882 -85.1808,-21.3645 -119.4683,-31.0524 -85.6057,-24.1494 -195.6779,-59.622 -284.1352,-88.1278 l -45.5923,-14.6772 c -62.2235,-19.9575 -175.0111,-57.4502 -231.2401,-84.2301 -211.6031,-100.7518 -682.2984,-329.2149 -947.0646,-458.1238 -124.3052,-60.5385 -285.9224,-142.4803 -382.4874,-191.4299 l -23.5091,-11.8931 c -36.6343,-18.5589 -24.3968,-59.9573 -18.4998,-79.8467 0.8811,-2.9087 2.0208,-6.8289 2.9543,-10.4103 -66.6967,-34.2857 -194.7196,-94.6911 -329.7942,-158.3992 C 1216.8053,1341.7096 1009.9169,1244.1366 887.66639,1179.7804 752.55463,1108.6075 654.20808,1030.7266 548.26283,910.97295 l -9.52547,-10.87741 c -23.53271,-27.05497 -52.82007,-60.66879 -79.75053,-67.17662 -5.09375,0.49994 -22.6155,12.73097 -33.09423,20.02815 -36.26871,25.33321 -103.79951,72.41067 -166.43529,-2.29628 -19.76647,-23.57693 -28.34427,-50.57696 -24.82109,-78.04512 7.8952,-61.54682 72.16269,-107.17883 110.56343,-134.45138 3.63648,-2.59176 6.9427,-4.93974 9.79877,-7.03899 68.10341,-49.94343 123.10379,-87.77767 210.52963,-120.31112 102.68545,-38.2059 322.05286,-89.4621 414.67795,-82.00556 42.8353,3.381 61.5193,38.8325 75.2157,64.72106 6.8472,12.9193 15.3863,29.0117 22.22,30.66202 40.8288,9.82898 99.807,7.84146 168.1005,5.55054 36.0502,-1.22382 73.3405,-2.46867 112.2171,-2.13742 9.6919,0.0914 26.6702,-5.89197 44.6453,-12.21665 45.0655,-15.86702 113.158,-39.81801 204.6727,-20.67592 62.9576,13.23169 123.5491,57.48694 182.2821,100.35747 15.2,11.11421 30.1216,22.02971 44.6136,31.99206 25.47,17.46718 50.8757,40.42164 75.4495,62.61968 38.4605,34.71745 81.8465,74.08625 112.2604,76.95773 10.1885,0.97175 12.9215,1.22956 29.1135,-32.60506 16.7734,-35.02956 42.1075,-87.96637 117.4715,-100.11646 29.827,-4.8209 61.2857,-1.85231 92.0474,5.57871 m 991.1309,947.75572 C 3087.093,1355.204 2944.6418,1188.1619 2828.1845,1090.6994 2681.0542,967.53676 2465.1622,817.0593 2355.8395,753.84236 c -68.9802,-39.91654 -133.262,-58.81856 -176.4022,-51.85826 -37.7807,6.10913 -49.8318,27.48289 -66.2718,61.85818 -14.7476,30.75261 -36.9849,77.22658 -97.8246,71.43408 -52.8621,-5.03999 -103.2236,-50.47702 -151.8619,-94.41365 -22.8706,-20.69682 -46.5918,-42.11927 -68.261,-56.97056 -15.0264,-10.30066 -30.5048,-21.61359 -46.2716,-33.12483 -52.7812,-38.57169 -107.8292,-78.72148 -155.674,-88.55189 -72.6864,-15.19319 -125.3692,3.32939 -167.692,18.23278 -24.8715,8.74039 -46.3687,16.30099 -68.1148,16.11528 -37.4344,-0.31055 -74.0246,0.92549 -109.3258,2.10847 -73.3109,2.45744 -136.6175,4.5731 -186.5236,-7.43437 l -0.08,0.003 c -37.0813,-8.99242 -54.3383,-41.63023 -66.98877,-65.45007 -5.55371,-10.43039 -14.70036,-27.90897 -19.82114,-28.30869 -74.43951,-5.99329 -280.08061,38.81287 -385.12154,77.9064 -79.28389,29.496 -128.2387,63.20809 -193.82668,111.28648 -3.11968,2.26023 -6.69744,4.81956 -10.64542,7.62431 -25.3316,17.98714 -78.04627,55.42704 -82.08941,87.04009 -0.76841,5.64638 -0.3415,13.58554 9.26694,25.02001 18.99966,22.69773 29.38259,21.33952 74.18477,-9.91969 25.91823,-18.08135 55.28009,-38.57638 88.71039,-30.50457 48.30059,11.66321 85.60512,54.52511 115.56525,88.92192 l 9.06732,10.44589 c 101.37848,114.57715 191.07678,185.62784 319.95727,253.49434 120.89082,63.6615 327.04452,160.8945 508.94632,246.6652 150.3724,70.875 280.2328,132.1556 344.1102,165.7867 38.526,20.2625 25.5912,63.9315 19.399,84.914 -0.5542,1.8543 -1.2043,4.0529 -1.8261,6.2103 l 8.8522,4.4897 c 96.3815,48.8671 257.6919,130.6514 381.5068,190.9498 264.6559,128.9035 735.1148,357.2162 946.5031,457.8568 54.5655,25.9976 173.9082,65.1821 222.673,80.8296 l 45.6431,14.6951 c 87.91,28.3381 197.3228,63.5977 281.7039,87.4171 33.3152,9.4077 74.2312,19.6535 117.5453,30.5311 53.7899,13.479 109.3818,27.4543 158.8534,41.7916 25.4858,7.398 58.9307,30.4118 94.3324,54.7663 25.2764,17.3851 53.9517,37.1023 70.5443,43.8756 5.2935,2.1641 11.6061,5.2571 18.5954,8.7425 46.9229,23.4199 53.8842,18.9297 59.7712,8.769 2.3554,-4.0503 4.9073,-9.65 3.6956,-13.3133 -4.1847,-12.6686 -35.3022,-26.07 -45.512,-30.4738 -4.1488,-1.8309 -7.6121,-3.2997 -10.0873,-4.589 -7.795,-3.8526 -29.0379,-12.9666 -53.6533,-23.5331 -109.5864,-47.0124 -220.256,-95.7817 -264.4024,-129.7947 -107.2705,-82.6578 -172.7483,-137.6611 -254.6943,-226.806 -87.9288,-95.6544 -181.8896,-206.7937 -251.3807,-297.2921 -26.2388,-34.1997 -89.6644,-122.986 -111.8514,-208.766 -13.0884,-50.5044 13.5579,-85.9104 31.1901,-109.3154 3.6539,-4.8444 8.7878,-11.6614 11.2312,-16.0055 m -1475.7086,27.7209 -0.1299,0.01 z" id="path17" />
</svg>