<svg viewBox="0 0 4493.8583 4493.8583" version="1.1" id="svg21" stroke="currentColor" fill="currentColor">
  <title id="title1">Yas Marina F1 CRAFTY LITTLE THINGS SHEFFIELD</title>
  <path d="m 281.25447,3090.2396 a 223.79,223.79 0 0 1 -71,-5.9 c -77.29,-19.18 -137.219996,-76.79 -160.329996,-154.13 -29.87,-100 11.56,-163.47 48.12,-219.48 10.449996,-16 20.319996,-31.11 28.939996,-47.28 43.37,-81.31 109.2,-184.21 172.87,-283.74 16.88,-26.39 33.61,-52.56 49.72,-78 67.75,-107 174.63,-225.44 278,-340 56.59,-62.72 110,-122 154.9,-176.82 109.78005,-134.31 215.87005,-244.69 315.32993,-328.08 54.2101,-45.48 234.4201,-130.41 292.87,-152.63 30.67,-11.63 79.85,-15.92 131.93,-20.48 34.54,-3 85.1401,-7.43 104,-13.85 2.3,-12.36 2.4001,-38.73 2.47,-55.38 0.22,-53.0799 0.4101,-103.1999 33.3901,-125.7399 9.22,-6.33 28.71,-15.22 55.7,-4.34 464.38,186.9399 2221.8299,928.9399 2676.77,1128.2299 33.79,14.81 56.3999,49.76 59,91.2 2.62,41.72 -16.54,80.26 -50.05,100.53 -76.78,46.45 -156,50.78 -265.62,56.84 -29.2,1.6 -62.29,3.41 -98.16,6.18 -209.43,16.15 -406.46,19.18 -534.87,18.86 -88.45,-0.19 -175.79,-28.44 -257.69,-57.35 -29.43,-10.39 -52.58,-20.42 -73,-29.25 -42.23,-18.27 -72.76,-31.48 -132.5,-36.24 -43.52,-3.4 -102.08,22.77 -138,48.61 -25.72,18.5 -42.92,50.86 -61.14,85.14 -4.53,8.54 -9,17 -13.65,25.24 -10.41,18.56 -26.08,50.25 -42.66,83.82 -71.38,144.4 -83.71,163.37 -110,169.05 -145.62,31.47 -421.11,75.59 -538.75,94.44 l -8.53,1.37 c -22,3.49 -45.69,-3.4 -66.49,-19.49 -23.32,-18 -38.84,-44.15 -41.57,-69.82 -14.08,-133.29 -38.2,-454.38 -61.48,-764.91 -17,-226.22 -33.07,-440.52 -43,-550.27 -21.89,-6.39 -68.89,-10.38 -84.46,-7.5 -17.73,8.55 -47.5,21.19 -84.75,37 -93.2,39.59 -246.5,104.67 -295.12,144.17 -6.27,40.66 8.3,203.83 18.07,313.51 7.9,88.51 15.36,172.09 16.12,219.78 0.69,44.06 -13.88,108.1 -18.38,126.68 -18.49,76.57 -31.87,99.79 -59.67,103.49 -38.87,5.71 -248.57,-14.16 -289.63,-20.55 -43.24,-6.7 -45.34,-52.5 -50.94,-174.89 -1.62,-35.22 -4.08,-89.13 -8.44,-118.14 l -5.73,0.59 c -157.56998,16.46 -246.86003,29.08 -265.38003,37.53 -57.75,27.84 -169,177.4 -199.33,286.52 -15.62,56.15 -21.08,124.36 -26.87,196.58 -11.27,140.84 -24.05,300.44 -122.93,402.19 -44.41,45.67 -100.41,72.27 -158,76.72 M 1706.8645,1162.8597 c -1.58,15.25 -1.65,36.9999 -1.7,51.8499 -0.2,47.29 -0.34,84.64 -20.85,107.67 -22.63,25.42 -68.81,30.54 -155.34,38.08 -42.55,3.73 -90.8,7.93 -111.65,15.86 -61.19,23.23 -228.71,104.3 -271,139.77 -95.8,80.32 -198.48998,187.24 -305.22998,317.84 -46.00005,56.33 -100.10005,116.23 -157.34005,179.68 -101.2,112.13 -205.84,228.11 -270.09,329.57 -16.16,25.51 -33,51.76 -49.9,78.27 -62.86,98.25 -127.85,199.86 -169.78,278.46 -10.24,19.18 -21.5,36.47 -32.41,53.17 -33.86,51.84 -58.31,89.3 -38.76,154.77 15.26,51.06 54.76,89.07 105.68,101.7 55.28,13.74 112.33,-4.5 156.51,-50 79.49,-81.76 90.59,-220.33 101.33,-354.33 6.08,-76.06 11.83,-147.89 29.45,-211.23 31.77,-114.19 148.75,-291.34 240,-335.31 27.58,-13.29 106.26005,-25.38 290.30003,-44.61 14.14,-1.46 25,-2.61 31.09,-3.31 12,-1.74 24,2.26 33.46,10.41 23.9,20.53 28,64.09 33.41,183.37 1.54,33.44 3.7,80.59 7.2,105.23 59.74,7.15 182.14,17 230.12,17.92 11.69,-33.43 29.71,-112.43 29.06,-152.83 -0.71,-44.84 -8,-127.06 -15.81,-214.11 -26.28,-294.56 -26.32,-346.63 -0.24,-371.45 46.91,-44.63 179.91,-103.15 323.74,-164.24 36.3,-15.42 67.67,-28.74 83.27,-36.38 30.21,-14.76 125.16,-6.44 161.34,14.12 22.57,12.8 27.44,30.74 28.3399,40.29 9.8401,104.62 26.71,329.59 44.6101,567.79 23.24,309.93 47.31,630.42 61.28,762.55 0.8599,8.08 14.7199,21.19 21.0699,21.49 l 8,-1.33 c 114.16,-18.27 377.7801,-60.48 523.9501,-91.35 14.86,-21.89 47.94,-88.85 68.49,-130.41 17,-34.47 33.1399,-67.06 44.52,-87.36 4.35,-7.75 8.59,-15.7 12.82,-23.71 20.58,-38.71 43.9,-82.57 84.18,-111.53 44.82,-32.22 121,-67.86 188.1599,-62.63 72.24,5.75 111.2801,22.64 156.4801,42.2 20.25,8.77 41.2199,17.84 68.17,27.35 75.76,26.76 156.15,52.89 232.78,53.05 127.05,0.32 321.94,-2.67 528.9,-18.64 36.7,-2.83 70.2299,-4.67 99.8099,-6.29 106.0601,-5.83 170.0001,-9.33 230.6001,-46 13,-7.85 13.47,-23.21 13.0699,-29.45 -0.75,-11.92 -6.27,-22.43 -13.3999,-25.57 -449.2001,-196.77 -2169.2401,-923.04 -2657.69,-1120.3899 m 939.13,1544.6499 z" id="path10" />
</svg>