<svg viewBox="0 0 4493.8583 4493.8583" version="1.1" id="svg21" stroke="currentColor" fill="currentColor">
  <title id="title1">Zandvoort  F1 CRAFTY LITTLE THINGS SHEFFIELD</title>
  <path d="m 1142.1343,3685.5383 c -289.44996,0 -373.90996,-60.63 -494.45996,-196 -64.9,-72.87 -156,-238.12 -37.31,-526 66.86,-162.11 130.18,-315.32 191.54,-463.76 204.32996,-494.37 380.77996,-921.33 594.99996,-1452 l 63.8,-149.50003 c 33.09,-80.85 157.58,-105 222.36,-81.31 73.42,27 127.39,127.15 109,202.27003 -9.19,37.43 -51.94,138 -106.84,265.62 -15.35,35.68 -29.13,67.7 -38.57,90.41 -59.46,143.17 -59.58,243.69 -59.67,324.45 -0.09,77.66 -0.17,144.7 -51.89,213 -28,37 -102.3,62.23 -221.43,99.49 -39.89,12.47 -25.1,3.62 -60,16.63 -35.72,13.29 -77.55,61.1 -59.75,112.78 20.09,58.39 72.55,74.52 155.93,48.07 71.88,-22.75 77.29,-21.66 131.53,-39.88 145.17,-48.77 241.08,-81 341.93,-86.92 144.38,-8.37 239.08,15.49 358.9,45.75 47.67,12 97,24.51 155.54,36.55 119.11,24.57 258.45,-3 354.94,-70.31 13.48,-9.39 159.05,-102.65 200.84,-122.29 98.21,-46 183.47,-67.17 259.78,-64.71 133.63,4.37 255.5,8.53 394.25,15.39 140.72,7 251,62.42 318.92,160.21 35,50.31 139.48,229.44 16.13,421.78 -37.44,58.41 -69,101.46 -99.53,143.1 -69.94,95.39 -136,185.49 -263.94,448.47 -66.57,136.83 -264.67,105.68 -407.93,70.35 -145.52,-35.93 -363.61,-169.75 -363.29,-290.37 -2.62,-33.57 20.35,-119.8 182.58,-178.89 25,-9.11 55.77,-13.78 94.69,-19.7 67,-10.17 158.79,-24.09 274.11,-70.49 91,-36.54 128.48,-89.55 114.67,-162 -14.19,-74.39 -65.26,-103.84 -202.4,-116.77 -186.55,-17.61 -254.46,-18.38 -427.31,-4.81 -513.88,40.25 -846.25,196.45 -1117.46,339.71 -68.92,36.58 -102.81,-24.11 -123,-60.35 -2.56,-4.56 -5.15,-9.23 -7.88,-13.94 -36.27,-62.72 -67.63,-67 -112.89,-52.85 -33.87,10.58 -68.59,30.61 -51.75,134.81 44.34,274 77.33,443.86 119.1,658.92 l 6,31 c 21.42,110.18 8.09,196.83 -39.61,257.57 -52.66,67 -129.28,80.49 -170.27,82.54 -53.2,2.65 -101.09,4 -144.33,4 m 486.48,-2812.28003 c -41.13,0 -94.6,17.62 -107.56,49.63 a 5.1,5.1 0 0 1 -0.23,0.56 l -63.72,149.18003 c -214,530.3 -390.56,957.36 -594.93996,1451.87 -61.36,148.43 -124.67,301.6 -191.49,463.76 -105.25,255.22 -29,396.56 25.74,458.1 118,132.51 187,190.32 586.78996,170.25 29.88,-1.51 85.5,-11 122.18,-57.69 35.55,-45.23 44.62,-114.24 27,-205.09 l -6,-31 c -41.87,-215.61 -75,-385.92 -119.44,-661 -6.74,-41.68 -27.23,-168.48 96.6,-207.2 81.57,-25.52 141.62,0.69 188.89,82.44 2.91,5 5.68,10 8.38,14.8 7.43,13.37 19.9,35.71 26,37.91 0,0 2.73,0.13 9.4,-3.41 277,-146.32 616.61,-305.87 1142.9,-347.09 175.61,-13.78 249.4,-13 438.57,4.88 112.33,10.6 234.35,33.3 260.31,169.4 11.41,59.81 6.53,169.83 -154.34,234.47 -122.38,49.21 -218.5,63.8 -288.69,74.46 -35.33,5.37 -63.22,9.61 -82.13,16.49 -128.64,46.85 -139.37,104.26 -140.19,111.35 a 31,31 0 0 1 0.44,6 c -1.35,68.47 168.72,191.88 313.75,227.69 282.37,69.67 320.95,-9.57 333.62,-35.61 130.5,-268.24 198.23,-360.63 269.95,-458.46 29.94,-40.83 60.9,-83.06 97.24,-139.74 101.64,-158.51 14.37,-307.76 -14.8,-349.74 -56.82,-81.68 -147.17,-126.21 -268.62,-132.21 -138.22,-6.84 -259.81,-11 -393.11,-15.33 -66.24,-2.29 -141.29,17 -229.9,58.56 -37,17.38 -178.91,108.15 -191.26,116.74 -112.17,78.19 -267.58,109.1 -405.47,80.68 -60,-12.33 -112.26,-25.54 -158.37,-37.18 -114.36,-28.9 -204.65,-51.76 -339.08,-43.87 -92.12,5.4 -179.74,34.85 -324.92,83.63 -54.49,18.3 -60.2,17.3 -132.61,40.2 -30.57,9.73 -76.35,19.82 -120.47,12.53 -56.85,-9.35 -97.26,-44.43 -116.87,-101.43 -28.9,-83.84 27.67,-168.44 98.63,-194.83 36.54,-13.59 22.59,-5 63.3,-17.75 72.38,-22.63 171.5,-53.63 188.9,-76.61 38.58,-51 38.64,-99.9 38.73,-173.92 0.1,-86.53 0.23,-194.21 64.63,-349.27 9.52,-22.9 23.41,-55.19 38.9,-91.18 40,-93 94.77,-220.28 103.41,-255.44 10.37,-42.32003 -26.56,-110.50003 -68.13,-125.78003 -8.64,-3.16 -19.73,-4.71 -31.92,-4.71 m 1182.79,1972.23003 z m 0,-0.1 c 0,0 0,0 0,0.08 0,0.08 0,-0.06 0,-0.08 M 1490.8543,910.72827 Z" id="path1" />
</svg>